<svg width="100" height="100" viewBox="0 0 100 100" fill="none" xmlns="http://www.w3.org/2000/svg">
<g clip-path="url(#clip0_168_10573)">
<path d="M50 100C77.6142 100 100 77.6142 100 50C100 22.3858 77.6142 0 50 0C22.3858 0 0 22.3858 0 50C0 77.6142 22.3858 100 50 100Z" fill="url(#paint0_linear_168_10573)"/>
<path d="M50 100C77.6142 100 100 77.6142 100 50C100 22.3858 77.6142 0 50 0C22.3858 0 0 22.3858 0 50C0 77.6142 22.3858 100 50 100Z" fill="url(#paint1_radial_168_10573)"/>
<path d="M58.315 71.2982C57.8945 69.9766 57.47 68.6538 57.0423 67.3299C54.7176 65.7215 52.3778 64.0992 50.0284 62.4707C47.6789 64.0992 45.3392 65.7215 43.0145 67.3299C42.5866 68.6538 42.1621 69.9766 41.7417 71.2982C41.1089 73.2824 39.3027 74.5991 37.2437 74.5572C37.2437 74.5572 37.2703 75.7721 37.2707 75.7721C45.7759 75.95 54.2812 75.95 62.7862 75.7721C62.7955 75.3671 62.8045 74.9621 62.8133 74.5572C60.7542 74.5993 58.9478 73.2822 58.315 71.2982Z" fill="url(#paint2_linear_168_10573)"/>
<path d="M58.315 71.2982C57.8945 69.9766 57.47 68.6538 57.0423 67.3299C54.7176 65.7215 52.3778 64.0992 50.0284 62.4707C47.6789 64.0992 45.3392 65.7215 43.0145 67.3299C42.5866 68.6538 42.1621 69.9766 41.7417 71.2982C41.1089 73.2824 39.3027 74.5991 37.2437 74.5572C37.2437 74.5572 37.2703 75.7721 37.2707 75.7721C45.7759 75.95 54.2812 75.95 62.7862 75.7721C62.7955 75.3671 62.8045 74.9621 62.8133 74.5572C60.7542 74.5993 58.9478 73.2822 58.315 71.2982Z" fill="url(#paint3_linear_168_10573)"/>
<path d="M36.4415 55.1152C31.5674 56.7146 26.7047 58.2835 21.8655 59.79C21.8958 61.3787 21.9338 62.9675 21.9794 64.5563C22.0177 65.8713 23.1371 66.9709 24.472 67.0083C28.503 67.1181 32.534 67.202 36.565 67.2598C36.5008 63.2117 36.4596 59.1635 36.4415 55.1152Z" fill="url(#paint4_linear_168_10573)"/>
<path d="M68.4965 55.0918C68.4717 59.1206 68.4158 63.1492 68.3289 67.1779C70.7474 67.1308 73.166 67.0742 75.5845 67.0084C76.9194 66.9711 78.0389 65.8714 78.0771 64.5563C78.1227 62.9676 78.1607 61.3788 78.1911 59.7901C74.9749 58.2561 71.7409 56.6853 68.4965 55.0918Z" fill="url(#paint5_linear_168_10573)"/>
<path d="M70.8024 64.7163C70.87 61.5029 70.9149 58.2896 70.9375 55.0762C58.6253 55.1532 46.313 55.1621 34.001 55.1032C34.0183 58.3346 34.0528 61.5659 34.1044 64.7973C34.1265 66.1352 35.23 67.2389 36.5651 67.2586C47.1532 67.4106 57.7411 67.3833 68.3292 67.1768C69.6639 67.1498 70.7739 66.0464 70.8024 64.7163Z" fill="url(#paint6_linear_168_10573)"/>
<path d="M67.9793 74.4341C66.3837 74.4785 64.788 74.5171 63.1924 74.5499C63.1743 75.3597 63.1554 76.1693 63.1355 76.9791C64.7243 76.9432 66.313 76.9008 67.9018 76.8517C68.5595 76.831 69.1126 76.273 69.1358 75.6066C69.1588 74.9401 68.6405 74.4158 67.9793 74.4341Z" fill="url(#paint7_linear_168_10573)"/>
<path d="M64.3588 75.7376C64.3762 75.068 63.8536 74.5364 63.1924 74.5499C52.8207 74.7621 42.4489 74.7235 32.0772 74.4341C31.4161 74.4158 30.8977 74.9401 30.9209 75.6067C30.944 76.273 31.497 76.8312 32.1549 76.8518C42.4818 77.1702 52.8087 77.2126 63.1357 76.9792C63.7932 76.9643 64.3414 76.4079 64.3588 75.7376Z" fill="url(#paint8_linear_168_10573)"/>
<path d="M24.6508 28.4002C23.3255 28.4486 22.2029 29.5582 22.1509 30.8734C21.7763 40.5119 21.681 50.1503 21.8653 59.7888C25.9233 59.8574 29.9814 59.9113 34.0394 59.9503C34.8424 59.1502 35.6477 58.3478 36.4551 57.5431C36.3886 47.7195 36.4566 37.8959 36.6591 28.0723C32.6564 28.1476 28.6536 28.257 24.6508 28.4002Z" fill="url(#paint9_linear_168_10573)"/>
<path d="M75.4055 28.401C73.004 28.315 70.6022 28.2413 68.2007 28.1797C68.4759 37.9559 68.5683 47.7322 68.4779 57.5086C69.2833 58.3077 70.0864 59.1039 70.8866 59.8971C73.3214 59.8666 75.7563 59.8307 78.1911 59.7896C78.3754 50.1511 78.2802 40.5127 77.9054 30.8742C77.8535 29.5592 76.7309 28.4495 75.4055 28.401Z" fill="url(#paint10_linear_168_10573)"/>
<path d="M68.2005 28.1801C57.6866 27.9107 47.1728 27.8751 36.6589 28.0733C35.3336 28.0989 34.2313 29.2084 34.2014 30.5462C33.9887 40.3479 33.9347 50.1497 34.0392 59.9514C46.3216 60.0695 58.6039 60.0514 70.8865 59.8976C71.0229 50.1502 70.9524 40.403 70.675 30.6559C70.6364 29.3258 69.526 28.2146 68.2005 28.1801Z" fill="url(#paint11_linear_168_10573)"/>
<path d="M24.561 30.7926C24.2469 39.6733 24.1478 48.554 24.2636 57.4346C25.8891 57.4534 27.5147 57.4705 29.1401 57.4858C33.9228 48.5876 38.9455 39.5036 43.842 30.4121C37.415 30.4617 30.988 30.5886 24.561 30.7926Z" fill="url(#paint12_linear_168_10573)"/>
<path d="M70.6751 30.6543C67.5889 35.0436 64.3997 39.5086 61.1685 44.01C64.4426 48.5392 67.7121 53.0445 70.9161 57.4858C72.5416 57.4706 74.1672 57.4536 75.7926 57.4347C75.9085 48.554 75.8093 39.6733 75.4952 30.7927C73.8887 30.7418 72.282 30.6956 70.6751 30.6543Z" fill="url(#paint13_linear_168_10573)"/>
<path d="M34.2017 30.5448C46.2595 34.9094 58.5827 39.7189 70.9293 44.3916C70.8903 39.8127 70.8055 35.2336 70.6752 30.6544C58.5173 30.3415 46.3595 30.3049 34.2017 30.5448Z" fill="url(#paint14_linear_168_10573)"/>
<path d="M36.762 23.5391C35.1733 23.5754 33.5845 23.6183 31.9958 23.6678C30.6807 23.7094 29.5716 24.8267 29.524 26.1569C29.3552 30.977 29.2372 35.797 29.1697 40.6171C31.582 42.1933 34.0079 43.79 36.4413 45.3994C36.4743 38.1126 36.5811 30.8259 36.762 23.5391Z" fill="url(#paint15_linear_168_10573)"/>
<path d="M53.4072 24.8262C53.1342 30.4826 52.8409 36.1405 52.5364 41.7992C58.1825 41.4932 63.8254 41.2129 69.4649 40.9665C64.068 35.6219 58.6688 30.1997 53.4072 24.8262Z" fill="url(#paint16_linear_168_10573)"/>
<path d="M46.2947 23.3984C43.1172 23.4189 39.9397 23.4655 36.7621 23.5382C35.4471 23.5689 34.3479 24.6833 34.3112 26.0212C34.1388 32.4839 34.0352 38.9465 34.0007 45.4092C40.6179 45.3775 47.2349 45.3654 53.8521 45.373C51.2935 38.0452 48.7328 30.7072 46.2947 23.3984Z" fill="url(#paint17_linear_168_10573)"/>
<path d="M36.4414 45.3987C35.6351 43.7828 34.8339 42.1703 34.0395 40.5625C32.4163 40.5781 30.7931 40.596 29.1698 40.6164C29.091 46.2398 29.0812 51.8632 29.1403 57.4866C31.5786 57.5094 34.0168 57.5282 36.4551 57.5431C36.4276 53.495 36.4231 49.4468 36.4414 45.3987Z" fill="url(#paint18_linear_168_10573)"/>
<path d="M34.0395 40.5631C33.9791 46.218 33.9717 51.8729 34.0169 57.5277C38.0807 57.5569 42.1445 57.5751 46.2084 57.582C48.7442 51.8892 51.3144 46.1819 53.843 40.4907C47.2417 40.4756 40.6406 40.4997 34.0395 40.5631Z" fill="url(#paint19_linear_168_10573)"/>
<path d="M69.465 40.9673C68.5725 40.0836 67.3487 39.5267 66.0052 39.5124C63.1126 39.4816 60.2201 39.4592 57.3274 39.4451C55.9832 39.4387 54.8901 38.3425 54.8847 36.9943C54.872 34.0922 54.8552 31.1902 54.834 28.2882C54.824 26.9403 54.2772 25.7157 53.4073 24.8269C52.537 23.9385 51.3442 23.3867 50.0284 23.3867C48.7839 23.3867 47.5393 23.3907 46.2948 23.3988C46.2157 34.793 46.1867 46.1873 46.2083 57.5815C54.4443 57.5957 62.6803 57.564 70.9162 57.4867C70.962 53.1219 70.9664 48.7569 70.9292 44.3921C70.9178 43.0612 70.3574 41.8512 69.465 40.9673Z" fill="url(#paint20_linear_168_10573)"/>
<path d="M69.465 40.9673C68.5724 40.0836 67.3486 39.5267 66.0052 39.5124C63.1125 39.4816 60.22 39.4592 57.3274 39.4451C55.9831 39.4387 54.8901 38.3425 54.8847 36.9943C54.872 34.0922 54.8551 31.1902 54.834 28.2882C54.824 26.9403 54.2771 25.7157 53.4073 24.8269C52.537 23.9385 51.3441 23.3867 50.0283 23.3867C51.2961 23.3867 52.2863 24.5255 52.1442 25.8164C51.6875 29.9357 51.2173 34.0565 50.7409 38.1777C50.3764 41.3096 53.0261 43.9619 56.1541 43.6041C60.2682 43.1339 64.3794 42.6761 68.4868 42.2378C69.7739 42.101 70.9179 43.1097 70.929 44.3921C70.9178 43.0612 70.3574 41.8512 69.465 40.9673Z" fill="url(#paint21_linear_168_10573)"/>
<path d="M39.9337 47.8218C38.3598 47.8242 36.7859 47.8271 35.212 47.8305C34.5376 47.8317 33.9923 47.2908 33.9949 46.6217C33.9976 45.9528 34.547 45.4072 35.2209 45.4044C36.7938 45.3974 38.3668 45.3915 39.9397 45.3867C40.6136 45.385 41.1583 45.9286 41.157 46.6016C41.1556 47.2746 40.6081 47.8209 39.9337 47.8218Z" fill="url(#paint22_linear_168_10573)"/>
<path d="M39.9337 52.6909C38.3598 52.6886 36.7859 52.6857 35.212 52.6822C34.5376 52.6806 33.9893 52.1366 33.9885 51.4676C33.9876 50.7983 34.5346 50.2562 35.209 50.2559H39.9316C40.6062 50.2557 41.1529 50.8013 41.1533 51.4743C41.1538 52.1471 40.6081 52.6921 39.9337 52.6909Z" fill="url(#paint23_linear_168_10573)"/>
<path d="M56.7299 54.5473C54.4854 54.4737 52.6523 53.3329 52.6523 52.1553C52.6523 51.5297 53.2134 50.6097 53.9242 50.6097C54.7099 50.6097 55.3458 51.6952 56.7299 51.9345V48.9536C55.009 48.3096 52.989 47.5184 52.989 45.1632C52.989 42.8264 54.7473 41.704 56.7299 41.428V40.9129C56.7299 40.6552 57.0292 40.416 57.4407 40.416C57.7961 40.416 58.1515 40.6552 58.1515 40.9129V41.3729C59.3111 41.4096 61.4996 41.704 61.4996 42.9736C61.4996 43.4704 61.163 44.4824 60.3399 44.4824C59.7227 44.4824 59.3673 43.8937 58.1515 43.8017V46.4881C59.8536 47.1136 61.8364 47.9785 61.8364 50.4624C61.8364 52.7441 60.3399 54.124 58.1515 54.4736V55.0072C58.1515 55.2649 57.7961 55.5041 57.4407 55.5041C57.0292 55.5041 56.7299 55.2649 56.7299 55.0072V54.5473ZM56.9169 46.0465V43.8569C56.0753 44.0224 55.7198 44.4457 55.7198 44.8872C55.7198 45.4209 56.2062 45.752 56.9169 46.0465ZM57.9645 49.4504V51.916C58.6004 51.7689 59.1055 51.4193 59.1055 50.757C59.1054 50.1496 58.6378 49.7632 57.9645 49.4504Z" fill="#634AEA"/>
</g>
<defs>
<linearGradient id="paint0_linear_168_10573" x1="14.6447" y1="85.3553" x2="85.3555" y2="14.6445" gradientUnits="userSpaceOnUse">
<stop stop-color="#230BE0"/>
<stop offset="1" stop-color="#DDA2FC"/>
</linearGradient>
<radialGradient id="paint1_radial_168_10573" cx="0" cy="0" r="1" gradientUnits="userSpaceOnUse" gradientTransform="translate(50.0002 50) scale(50)">
<stop stop-color="#230BE0"/>
<stop offset="1" stop-color="#DDA2FC" stop-opacity="0"/>
</radialGradient>
<linearGradient id="paint2_linear_168_10573" x1="21.442" y1="103.009" x2="94.5528" y2="29.8986" gradientUnits="userSpaceOnUse">
<stop stop-color="#DDA2FC"/>
<stop offset="0.1867" stop-color="#E1ADFC"/>
<stop offset="0.511" stop-color="#EBC9FD"/>
<stop offset="0.9317" stop-color="#FCF7FF"/>
<stop offset="1" stop-color="white"/>
</linearGradient>
<linearGradient id="paint3_linear_168_10573" x1="50.0284" y1="78.135" x2="50.0284" y2="58.7027" gradientUnits="userSpaceOnUse">
<stop stop-color="#DDA2FC" stop-opacity="0"/>
<stop offset="0.1418" stop-color="#D99FFB" stop-opacity="0.142"/>
<stop offset="0.2886" stop-color="#CC95F9" stop-opacity="0.289"/>
<stop offset="0.4379" stop-color="#B884F6" stop-opacity="0.438"/>
<stop offset="0.5888" stop-color="#9B6CF2" stop-opacity="0.589"/>
<stop offset="0.741" stop-color="#754EEC" stop-opacity="0.741"/>
<stop offset="0.8921" stop-color="#4829E6" stop-opacity="0.892"/>
<stop offset="1" stop-color="#230BE0"/>
</linearGradient>
<linearGradient id="paint4_linear_168_10573" x1="3.95495" y1="88.785" x2="76.0772" y2="16.6629" gradientUnits="userSpaceOnUse">
<stop stop-color="#DDA2FC"/>
<stop offset="0.1867" stop-color="#E1ADFC"/>
<stop offset="0.511" stop-color="#EBC9FD"/>
<stop offset="0.9317" stop-color="#FCF7FF"/>
<stop offset="1" stop-color="white"/>
</linearGradient>
<linearGradient id="paint5_linear_168_10573" x1="14.7806" y1="118.803" x2="79.0428" y2="54.5407" gradientUnits="userSpaceOnUse">
<stop stop-color="#DDA2FC"/>
<stop offset="0.1867" stop-color="#E1ADFC"/>
<stop offset="0.511" stop-color="#EBC9FD"/>
<stop offset="0.9317" stop-color="#FCF7FF"/>
<stop offset="1" stop-color="white"/>
</linearGradient>
<linearGradient id="paint6_linear_168_10573" x1="-5.54428" y1="118.342" x2="79.075" y2="33.7223" gradientUnits="userSpaceOnUse">
<stop stop-color="#DDA2FC"/>
<stop offset="0.1867" stop-color="#E1ADFC"/>
<stop offset="0.511" stop-color="#EBC9FD"/>
<stop offset="0.9317" stop-color="#FCF7FF"/>
<stop offset="1" stop-color="white"/>
</linearGradient>
<linearGradient id="paint7_linear_168_10573" x1="28.934" y1="112.551" x2="66.4966" y2="74.9885" gradientUnits="userSpaceOnUse">
<stop stop-color="#DDA2FC"/>
<stop offset="0.1867" stop-color="#E1ADFC"/>
<stop offset="0.511" stop-color="#EBC9FD"/>
<stop offset="0.9317" stop-color="#FCF7FF"/>
<stop offset="1" stop-color="white"/>
</linearGradient>
<linearGradient id="paint8_linear_168_10573" x1="-2.79457" y1="126.093" x2="67.5677" y2="55.7308" gradientUnits="userSpaceOnUse">
<stop stop-color="#DDA2FC"/>
<stop offset="0.1867" stop-color="#E1ADFC"/>
<stop offset="0.511" stop-color="#EBC9FD"/>
<stop offset="0.9317" stop-color="#FCF7FF"/>
<stop offset="1" stop-color="white"/>
</linearGradient>
<linearGradient id="paint9_linear_168_10573" x1="24.5403" y1="48.5013" x2="140.032" y2="-66.99" gradientUnits="userSpaceOnUse">
<stop stop-color="#230BE0"/>
<stop offset="1" stop-color="#F2D5FF"/>
</linearGradient>
<linearGradient id="paint10_linear_168_10573" x1="29.1938" y1="87.9868" x2="132.292" y2="-15.1117" gradientUnits="userSpaceOnUse">
<stop stop-color="#230BE0"/>
<stop offset="1" stop-color="#F2D5FF"/>
</linearGradient>
<linearGradient id="paint11_linear_168_10573" x1="16.3596" y1="80.9135" x2="144.08" y2="-46.8065" gradientUnits="userSpaceOnUse">
<stop stop-color="#230BE0"/>
<stop offset="1" stop-color="#F2D5FF"/>
</linearGradient>
<linearGradient id="paint12_linear_168_10573" x1="0.429235" y1="70.5606" x2="76.2229" y2="-5.23307" gradientUnits="userSpaceOnUse">
<stop stop-color="#C96FF8"/>
<stop offset="0.1795" stop-color="#CE7BF9"/>
<stop offset="0.5008" stop-color="#DA9AFB"/>
<stop offset="0.924" stop-color="#EECBFE"/>
<stop offset="1" stop-color="#F2D5FF"/>
</linearGradient>
<linearGradient id="paint13_linear_168_10573" x1="10.6856" y1="106.593" x2="76.7209" y2="40.5576" gradientUnits="userSpaceOnUse">
<stop stop-color="#C96FF8"/>
<stop offset="0.1795" stop-color="#CE7BF9"/>
<stop offset="0.5008" stop-color="#DA9AFB"/>
<stop offset="0.924" stop-color="#EECBFE"/>
<stop offset="1" stop-color="#F2D5FF"/>
</linearGradient>
<linearGradient id="paint14_linear_168_10573" x1="22.703" y1="67.3306" x2="71.1039" y2="18.9299" gradientUnits="userSpaceOnUse">
<stop stop-color="#C96FF8"/>
<stop offset="0.1795" stop-color="#CE7BF9"/>
<stop offset="0.5008" stop-color="#DA9AFB"/>
<stop offset="0.924" stop-color="#EECBFE"/>
<stop offset="1" stop-color="#F2D5FF"/>
</linearGradient>
<linearGradient id="paint15_linear_168_10573" x1="23.947" y1="44.3303" x2="84.5501" y2="-16.2728" gradientUnits="userSpaceOnUse">
<stop stop-color="#C96FF8"/>
<stop offset="0.1795" stop-color="#CE7BF9"/>
<stop offset="0.5008" stop-color="#DA9AFB"/>
<stop offset="0.924" stop-color="#EECBFE"/>
<stop offset="1" stop-color="#F2D5FF"/>
</linearGradient>
<linearGradient id="paint16_linear_168_10573" x1="-52.4857" y1="146.818" x2="58.9462" y2="35.3861" gradientUnits="userSpaceOnUse">
<stop stop-color="#DDA2FC"/>
<stop offset="0.1867" stop-color="#E1ADFC"/>
<stop offset="0.511" stop-color="#EBC9FD"/>
<stop offset="0.9317" stop-color="#FCF7FF"/>
<stop offset="1" stop-color="white"/>
</linearGradient>
<linearGradient id="paint17_linear_168_10573" x1="12.3582" y1="66.9277" x2="78.5709" y2="0.71498" gradientUnits="userSpaceOnUse">
<stop stop-color="#C96FF8"/>
<stop offset="0.1795" stop-color="#CE7BF9"/>
<stop offset="0.5008" stop-color="#DA9AFB"/>
<stop offset="0.924" stop-color="#EECBFE"/>
<stop offset="1" stop-color="#F2D5FF"/>
</linearGradient>
<linearGradient id="paint18_linear_168_10573" x1="18.101" y1="63.7912" x2="54.1146" y2="27.7775" gradientUnits="userSpaceOnUse">
<stop stop-color="#230BE0"/>
<stop offset="1" stop-color="#F2D5FF"/>
</linearGradient>
<linearGradient id="paint19_linear_168_10573" x1="8.28178" y1="80.9147" x2="69.6815" y2="19.5151" gradientUnits="userSpaceOnUse">
<stop stop-color="#230BE0"/>
<stop offset="1" stop-color="#F2D5FF"/>
</linearGradient>
<linearGradient id="paint20_linear_168_10573" x1="-49.7965" y1="148.845" x2="62.8509" y2="36.1972" gradientUnits="userSpaceOnUse">
<stop stop-color="#DDA2FC"/>
<stop offset="0.1867" stop-color="#E1ADFC"/>
<stop offset="0.511" stop-color="#EBC9FD"/>
<stop offset="0.9317" stop-color="#FCF7FF"/>
<stop offset="1" stop-color="white"/>
</linearGradient>
<linearGradient id="paint21_linear_168_10573" x1="37.4215" y1="56.9465" x2="105.212" y2="-10.8443" gradientUnits="userSpaceOnUse">
<stop stop-color="#DDA2FC" stop-opacity="0"/>
<stop offset="0.1418" stop-color="#D99FFB" stop-opacity="0.142"/>
<stop offset="0.2886" stop-color="#CC95F9" stop-opacity="0.289"/>
<stop offset="0.4379" stop-color="#B884F6" stop-opacity="0.438"/>
<stop offset="0.5888" stop-color="#9B6CF2" stop-opacity="0.589"/>
<stop offset="0.741" stop-color="#754EEC" stop-opacity="0.741"/>
<stop offset="0.8921" stop-color="#4829E6" stop-opacity="0.892"/>
<stop offset="1" stop-color="#230BE0"/>
</linearGradient>
<linearGradient id="paint22_linear_168_10573" x1="27.2724" y1="56.9181" x2="61.923" y2="22.2675" gradientUnits="userSpaceOnUse">
<stop stop-color="#230BE0"/>
<stop offset="1" stop-color="#F2D5FF"/>
</linearGradient>
<linearGradient id="paint23_linear_168_10573" x1="27.1381" y1="61.906" x2="61.6689" y2="27.3752" gradientUnits="userSpaceOnUse">
<stop stop-color="#230BE0"/>
<stop offset="1" stop-color="#F2D5FF"/>
</linearGradient>
<clipPath id="clip0_168_10573">
<rect width="100" height="100" fill="white"/>
</clipPath>
</defs>
</svg>
