<svg width="100" height="100" viewBox="0 0 100 100" fill="none" xmlns="http://www.w3.org/2000/svg">
<path d="M50 100C77.6142 100 100 77.6142 100 50C100 22.3858 77.6142 0 50 0C22.3858 0 0 22.3858 0 50C0 77.6142 22.3858 100 50 100Z" fill="url(#paint0_linear_168_10332)"/>
<path d="M50 100C77.6142 100 100 77.6142 100 50C100 22.3858 77.6142 0 50 0C22.3858 0 0 22.3858 0 50C0 77.6142 22.3858 100 50 100Z" fill="url(#paint1_radial_168_10332)"/>
<path d="M33.0743 21.351C29.822 21.5089 27.0718 24.3255 26.9641 27.5755C26.4957 42.5244 26.4957 57.4733 26.9641 72.4223C27.0718 75.6723 29.8222 78.4887 33.0743 78.6468C36.6148 78.8116 40.1554 78.9235 43.6959 78.9823C43.4992 59.6601 43.4992 40.338 43.6959 21.0156C40.1554 21.0745 36.6148 21.1862 33.0743 21.351Z" fill="url(#paint2_linear_168_10332)"/>
<path d="M66.1192 21.3513C58.6447 21.0035 51.1702 20.8916 43.6958 21.0158C42.3932 21.0377 41.321 22.1432 41.3024 23.4742C41.0711 41.1575 41.0711 58.8406 41.3024 76.5239C41.3208 77.855 42.393 78.9604 43.6958 78.9823C51.1702 79.1065 58.6447 78.9947 66.1192 78.6468C69.3713 78.4887 72.1217 75.6723 72.2293 72.4222C72.6978 57.4733 72.6978 42.5244 72.2293 27.5755C72.1217 24.3259 69.3713 21.5094 66.1192 21.3513Z" fill="url(#paint3_linear_168_10332)"/>
<path d="M41.3025 23.4746C38.5378 23.5333 35.773 23.6214 33.0082 23.739C31.0473 23.8244 29.4032 25.502 29.3464 27.4644C28.9272 42.4879 28.9272 57.5112 29.3464 72.5347C29.403 74.497 31.0473 76.1746 33.0082 76.2602C35.773 76.3777 38.5378 76.4658 41.3025 76.5245C44.7416 67.7583 48.3872 58.8681 52.0162 49.9995C48.3872 41.131 44.7416 32.2408 41.3025 23.4746Z" fill="url(#paint4_linear_168_10332)"/>
<path d="M66.1851 23.7391C57.8908 23.3866 49.5967 23.2987 41.3024 23.4748C41.0711 41.1581 41.0711 58.8412 41.3024 76.5245C49.5967 76.7008 57.8908 76.6126 66.1851 76.2602C68.1461 76.1746 69.7901 74.497 69.8469 72.5347C70.2661 57.5112 70.2661 42.4879 69.8469 27.4644C69.7903 25.5023 68.1459 23.8246 66.1851 23.7391Z" fill="url(#paint5_linear_168_10332)"/>
<path d="M44.7876 35.498C40.3727 37.138 35.9407 38.8079 31.5009 40.4682C31.4886 41.6595 31.4785 42.8507 31.471 44.0421C31.4666 44.6989 32.0063 45.2287 32.6729 45.2238C35.4935 45.2024 38.3143 45.1865 41.1349 45.1758C42.3513 41.9561 43.5722 38.7283 44.7876 35.498Z" fill="url(#paint6_linear_168_10332)"/>
<path d="M41.1993 33.1191C41.1658 37.138 41.1444 41.1569 41.1348 45.1758C49.5968 45.1437 58.0588 45.1598 66.5208 45.2238C67.1885 45.2287 67.727 44.6997 67.7227 44.0421C67.715 42.8507 67.7051 41.6595 67.6928 40.4682C58.8214 37.942 49.9767 35.4131 41.1993 33.1191Z" fill="url(#paint7_linear_168_10332)"/>
<path d="M32.9481 26.1268C32.2916 26.1523 31.7453 26.708 31.7289 27.3656C31.6219 31.7336 31.5457 36.1017 31.5007 40.4698C34.7179 40.4174 37.9349 40.3791 41.1519 40.3547C42.7719 37.9311 44.3897 35.502 45.9979 33.0749C44.407 30.6663 42.8293 28.2675 41.2724 25.8867C38.4976 25.9399 35.7229 26.02 32.9481 26.1268Z" fill="url(#paint8_linear_168_10332)"/>
<path d="M46.0291 25.8203C44.4436 25.8334 42.8579 25.8552 41.2724 25.8858C41.215 30.7084 41.1748 35.5313 41.1519 40.354C47.586 40.3052 54.0202 40.3121 60.4544 40.3749C55.5993 35.5154 50.7613 30.6169 46.0291 25.8203Z" fill="url(#paint9_linear_168_10332)"/>
<path d="M66.2455 26.1251C59.5067 25.8658 52.768 25.7638 46.0292 25.8194C45.9693 33.8243 52.4481 40.2976 60.4544 40.3738C62.8672 40.3974 65.2801 40.4287 67.6929 40.4679C67.6479 36.0998 67.5717 31.7318 67.4647 27.3637C67.4485 26.7061 66.9021 26.1506 66.2455 26.1251Z" fill="url(#paint10_linear_168_10332)"/>
<path d="M32.664 47.6119C31.996 47.6147 31.4531 48.1503 31.4522 48.8079C31.4501 50.3963 31.4522 51.9847 31.4583 53.5732C31.4608 54.2308 32.005 54.7686 32.6725 54.774C33.4785 54.7801 34.2843 54.7858 35.0903 54.791C35.0805 52.3952 35.078 49.9993 35.0829 47.6035C34.2766 47.6059 33.4703 47.6087 32.664 47.6119Z" fill="url(#paint11_linear_168_10332)"/>
<path d="M37.5019 47.5957C36.6956 47.5979 35.8893 47.6003 35.083 47.6029C34.4152 47.6053 33.8723 48.1427 33.8715 48.803C33.8698 50.3974 33.8715 51.9919 33.8768 53.5864C33.879 54.2466 34.4229 54.786 35.0904 54.7905C35.8964 54.7957 36.7022 54.8006 37.5082 54.8049C38.1758 54.8085 38.7153 54.2727 38.7138 53.608C38.7102 52.0039 38.709 50.3998 38.7102 48.7957C38.7105 48.1312 38.1699 47.5937 37.5019 47.5957Z" fill="url(#paint12_linear_168_10332)"/>
<path d="M42.3398 47.5852C41.6718 47.5864 41.1296 48.1273 41.1293 48.7931C41.1283 50.4006 41.1293 52.0082 41.1321 53.6157C41.1334 54.2815 41.6759 54.8234 42.3434 54.8256C43.1494 54.8282 43.9552 54.8304 44.7612 54.8323C44.7579 52.4156 44.7571 49.9987 44.7587 47.582C43.9524 47.5828 43.1461 47.5839 42.3398 47.5852Z" fill="url(#paint13_linear_168_10332)"/>
<path d="M47.1779 47.5801C46.3716 47.5806 45.5653 47.5812 44.759 47.582C44.0911 47.5828 43.5491 48.1242 43.5488 48.7911C43.5482 50.4013 43.5488 52.0114 43.5509 53.6216C43.5518 54.2885 44.0939 54.8306 44.7616 54.8322C45.5676 54.8339 46.3734 54.8352 47.1794 54.8361C47.8469 54.8369 48.388 54.2956 48.3879 53.6275C48.3874 52.0147 48.3874 50.4018 48.3874 48.7891C48.3872 48.1211 47.8458 47.5798 47.1779 47.5801Z" fill="url(#paint14_linear_168_10332)"/>
<path d="M52.0157 47.5801C51.3478 47.5798 50.8064 48.1211 50.8064 48.7892C50.8065 50.402 50.8064 52.0149 50.8059 53.6276C50.8058 54.2956 51.3469 54.8371 52.0144 54.8363C52.8204 54.8353 53.6262 54.8341 54.4322 54.8323C54.4355 52.4157 54.4363 49.9988 54.4347 47.5821C53.6284 47.5812 52.822 47.5806 52.0157 47.5801Z" fill="url(#paint15_linear_168_10332)"/>
<path d="M56.8537 47.5853C56.0474 47.5841 55.2411 47.583 54.4348 47.582C53.7669 47.5814 53.2257 48.1221 53.2259 48.7899C53.2263 50.4019 53.2259 52.0138 53.2246 53.6256C53.2241 54.2933 53.7648 54.8338 54.4323 54.8323C55.2383 54.8305 56.0441 54.8283 56.8501 54.8256C57.5178 54.8234 58.0602 54.2813 58.0614 53.6157C58.0643 52.0082 58.0652 50.4006 58.0643 48.7931C58.0638 48.1274 57.5217 47.5866 56.8537 47.5853Z" fill="url(#paint16_linear_168_10332)"/>
<path d="M32.6869 57.1602C32.0197 57.1528 31.4829 57.6797 31.4891 58.3373C31.5034 59.9256 31.5218 61.514 31.5445 63.1025C31.5539 63.7601 32.1006 64.3068 32.7644 64.3222C33.566 64.3404 34.3676 64.3574 35.169 64.3732C35.1396 61.9774 35.1174 59.5815 35.1026 57.1857C34.2973 57.1779 33.4921 57.1695 32.6869 57.1602Z" fill="url(#paint17_linear_168_10332)"/>
<path d="M37.5183 57.2091C36.7131 57.2025 35.9079 57.1954 35.1026 57.1876C34.4354 57.1813 33.8982 57.7109 33.9034 58.3712C33.9158 59.9657 33.9318 61.5602 33.9514 63.1547C33.9595 63.815 34.5051 64.3619 35.169 64.375C35.9706 64.3907 36.7721 64.405 37.5736 64.4181C38.2374 64.4291 38.7707 63.8982 38.7652 63.2337C38.7517 61.6296 38.7407 60.0255 38.732 58.4214C38.7287 57.7569 38.1855 57.2143 37.5183 57.2091Z" fill="url(#paint18_linear_168_10332)"/>
<path d="M42.3499 57.2402C41.6827 57.2371 41.1439 57.7737 41.1467 58.4396C41.1535 60.0472 41.162 61.6547 41.1725 63.2623C41.1771 63.9281 41.7192 64.4743 42.3831 64.4807C43.1847 64.4886 43.9862 64.495 44.7877 64.5004C44.7779 62.0837 44.7705 59.6668 44.7655 57.2502C43.9604 57.2475 43.1552 57.2442 42.3499 57.2402Z" fill="url(#paint19_linear_168_10332)"/>
<path d="M47.1811 57.2558C46.3759 57.2546 45.5707 57.2525 44.7654 57.25C44.0982 57.248 43.5588 57.7864 43.5608 58.4532C43.5655 60.0634 43.5717 61.6735 43.5792 63.2837C43.5824 63.9504 44.1235 64.4958 44.7874 64.5002C45.589 64.5054 46.3905 64.5094 47.192 64.512C47.8559 64.5142 48.3935 63.9734 48.3931 63.3054C48.3917 61.6927 48.3904 60.0798 48.3895 58.467C48.3893 57.7987 47.8483 57.2568 47.1811 57.2558Z" fill="url(#paint20_linear_168_10332)"/>
<path d="M52.0124 57.256C51.3452 57.2571 50.8042 57.799 50.8039 58.467C50.803 60.0797 50.8017 61.6925 50.8003 63.3054C50.7998 63.9734 51.3375 64.5142 52.0014 64.512C52.803 64.5093 53.6046 64.5054 54.406 64.5002C54.4159 62.0835 54.4231 59.6667 54.4282 57.25C53.6228 57.2527 52.8176 57.2546 52.0124 57.256Z" fill="url(#paint21_linear_168_10332)"/>
<path d="M56.8438 57.2402C56.0386 57.2442 55.2334 57.2475 54.4281 57.25C53.761 57.2521 53.2192 57.7946 53.2183 58.4624C53.2155 60.0744 53.2117 61.6862 53.2073 63.2982C53.2055 63.966 53.7423 64.5048 54.406 64.5002C55.2076 64.495 56.0092 64.4884 56.8106 64.4806C57.4745 64.4739 58.0166 63.9279 58.0211 63.2621C58.0317 61.6546 58.0403 60.047 58.0469 58.4395C58.0498 57.7738 57.5108 57.2373 56.8438 57.2402Z" fill="url(#paint22_linear_168_10332)"/>
<path d="M32.8016 66.7114C32.139 66.6939 31.6114 67.2118 31.6243 67.8695C31.6549 69.4579 31.6899 71.0462 31.7287 72.6348C31.7451 73.2923 32.2913 73.848 32.9479 73.8735C33.7407 73.904 34.5335 73.9323 35.3264 73.9584C35.2773 71.5627 35.2354 69.1668 35.201 66.771C34.4011 66.7526 33.6014 66.7328 32.8016 66.7114Z" fill="url(#paint23_linear_168_10332)"/>
<path d="M37.6005 66.8202C36.8006 66.8049 36.0009 66.7881 35.2013 66.7698C34.5386 66.7549 34.0098 67.2768 34.0209 67.9371C34.0475 69.5316 34.0777 71.1261 34.1116 72.7206C34.1257 73.3807 34.67 73.9356 35.3267 73.9573C36.1194 73.9834 36.9124 74.0073 37.7051 74.0292C38.3616 74.0473 38.8858 73.5219 38.8763 72.8572C38.853 71.2531 38.8321 69.649 38.8137 68.0449C38.806 67.3804 38.2633 66.8328 37.6005 66.8202Z" fill="url(#paint24_linear_168_10332)"/>
<path d="M42.3988 66.8927C41.7362 66.8853 41.2034 67.4176 41.2095 68.0835C41.2238 69.6911 41.2401 71.2986 41.2583 72.9062C41.266 73.572 41.805 74.1223 42.4615 74.1331C43.2542 74.1462 44.047 74.157 44.8399 74.1659C44.8235 71.7492 44.8095 69.3323 44.7981 66.9156C43.9984 66.9095 43.1985 66.9019 42.3988 66.8927Z" fill="url(#paint25_linear_168_10332)"/>
<path d="M47.1976 66.9297C46.3979 66.9268 45.5981 66.922 44.7984 66.9161C44.1356 66.911 43.6018 67.4465 43.6062 68.1134C43.6165 69.7236 43.6281 71.3337 43.641 72.9439C43.6465 73.6108 44.1837 74.159 44.8402 74.1663C45.633 74.1749 46.4259 74.1815 47.2187 74.1859C47.8752 74.1897 48.4069 73.6492 48.4059 72.9812C48.4034 71.3685 48.4011 69.7557 48.399 68.1428C48.3981 67.4747 47.8602 66.9323 47.1976 66.9297Z" fill="url(#paint26_linear_168_10332)"/>
<path d="M51.9959 66.9297C51.3332 66.9322 50.7954 67.4746 50.7948 68.1428C50.7927 69.7555 50.7904 71.3684 50.7878 72.9812C50.7869 73.6492 51.3184 74.1895 51.9751 74.1859C52.7679 74.1815 53.5608 74.1751 54.3536 74.1662C54.3699 71.7496 54.3839 69.3327 54.3954 66.916C53.5954 66.9222 52.7957 66.9267 51.9959 66.9297Z" fill="url(#paint27_linear_168_10332)"/>
<path d="M56.7944 66.8927C55.9946 66.9018 55.1949 66.9095 54.3952 66.9155C53.7326 66.9205 53.1935 67.4646 53.1911 68.1325C53.185 69.7444 53.178 71.3564 53.1702 72.9682C53.1672 73.636 53.6969 74.1729 54.3533 74.1657C55.1461 74.157 55.9389 74.146 56.7318 74.133C57.3883 74.1221 57.9272 73.5718 57.9349 72.9061C57.953 71.2985 57.9694 69.6909 57.9837 68.0834C57.9899 67.4178 57.4571 66.8853 56.7944 66.8927Z" fill="url(#paint28_linear_168_10332)"/>
<path d="M61.6916 47.5957C61.0238 47.5937 60.483 48.131 60.4836 48.7957C60.4849 50.3998 60.4836 52.0039 60.48 53.608C60.4784 54.2725 61.018 54.8086 61.6857 54.8049C62.4915 54.8005 63.2975 54.7957 64.1034 54.7905C64.1134 52.3948 64.1157 49.9989 64.1108 47.6031C63.3042 47.6003 62.4979 47.5979 61.6916 47.5957Z" fill="url(#paint29_linear_168_10332)"/>
<path d="M66.5296 47.612C65.7233 47.609 64.917 47.6062 64.1107 47.6035C63.4427 47.6012 62.9022 48.1367 62.903 48.7996C62.9046 50.3993 62.903 51.999 62.8984 53.5988C62.8967 54.2616 63.4358 54.7957 64.1033 54.7911C64.9091 54.7859 65.7151 54.7803 66.5211 54.7741C67.1888 54.7688 67.7328 54.2311 67.7353 53.5733C67.7414 51.985 67.7435 50.3966 67.7414 48.8081C67.7405 48.1503 67.1974 47.6149 66.5296 47.612Z" fill="url(#paint30_linear_168_10332)"/>
<path d="M61.6752 57.2091C61.008 57.2142 60.465 57.7568 60.4613 58.4215C60.4355 63.2338 60.3875 68.0459 60.3175 72.8582C60.3081 73.5227 60.8321 74.0485 61.4887 74.0302C62.2815 74.0085 63.0742 73.9844 63.8672 73.9583C63.9819 68.368 64.0565 62.7778 64.0909 57.1875C63.2856 57.1952 62.4804 57.2024 61.6752 57.2091Z" fill="url(#paint31_linear_168_10332)"/>
<path d="M66.5065 57.1602C65.7013 57.1694 64.8961 57.1779 64.0908 57.1857C63.4236 57.1922 62.8799 57.734 62.8757 58.3967C62.844 63.196 62.7855 67.995 62.6999 72.7943C62.6883 73.4571 63.2104 73.9784 63.8672 73.9565C64.6599 73.9304 65.4527 73.9021 66.2456 73.8715C66.9023 73.846 67.4485 73.2904 67.4648 72.6328C67.5816 67.8677 67.6615 63.1025 67.7045 58.3373C67.7103 57.6797 67.1737 57.153 66.5065 57.1602Z" fill="url(#paint32_linear_168_10332)"/>
<defs>
<linearGradient id="paint0_linear_168_10332" x1="14.6445" y1="85.3553" x2="85.3553" y2="14.6445" gradientUnits="userSpaceOnUse">
<stop stop-color="#008A4C"/>
<stop offset="1" stop-color="#D3FF33"/>
</linearGradient>
<radialGradient id="paint1_radial_168_10332" cx="0" cy="0" r="1" gradientUnits="userSpaceOnUse" gradientTransform="translate(50 50) scale(50)">
<stop stop-color="#008A4C" stop-opacity="0.8"/>
<stop offset="1" stop-color="#D3FF33" stop-opacity="0"/>
</radialGradient>
<linearGradient id="paint2_linear_168_10332" x1="7.12299" y1="80.2877" x2="104.608" y2="-17.1977" gradientUnits="userSpaceOnUse">
<stop stop-color="#DDFF59"/>
<stop offset="1" stop-color="white"/>
</linearGradient>
<linearGradient id="paint3_linear_168_10332" x1="-83.4553" y1="188.865" x2="76.2693" y2="29.1406" gradientUnits="userSpaceOnUse">
<stop stop-color="#DDFF59"/>
<stop offset="1" stop-color="white"/>
</linearGradient>
<linearGradient id="paint4_linear_168_10332" x1="17.8417" y1="68.7524" x2="101.448" y2="-14.8542" gradientUnits="userSpaceOnUse">
<stop stop-color="#95E12E"/>
<stop offset="1" stop-color="#DDFF59"/>
</linearGradient>
<linearGradient id="paint5_linear_168_10332" x1="7.63555" y1="96.6689" x2="86.9916" y2="17.313" gradientUnits="userSpaceOnUse">
<stop stop-color="#95E12E"/>
<stop offset="1" stop-color="#DDFF59"/>
</linearGradient>
<linearGradient id="paint6_linear_168_10332" x1="-82.6308" y1="161.77" x2="122.936" y2="-43.7968" gradientUnits="userSpaceOnUse">
<stop stop-color="#006946"/>
<stop offset="0.2513" stop-color="#008547"/>
<stop offset="0.3421" stop-color="#128F45"/>
<stop offset="0.5244" stop-color="#41AA41"/>
<stop offset="0.7788" stop-color="#8CD63A"/>
<stop offset="1" stop-color="#D3FF33"/>
</linearGradient>
<linearGradient id="paint7_linear_168_10332" x1="-5.33022" y1="98.6172" x2="71.4291" y2="21.8579" gradientUnits="userSpaceOnUse">
<stop stop-color="#006946"/>
<stop offset="0.2513" stop-color="#008547"/>
<stop offset="0.3421" stop-color="#128F45"/>
<stop offset="0.5244" stop-color="#41AA41"/>
<stop offset="0.7788" stop-color="#8CD63A"/>
<stop offset="1" stop-color="#D3FF33"/>
</linearGradient>
<linearGradient id="paint8_linear_168_10332" x1="14.0088" y1="56.0484" x2="95.1205" y2="-25.0633" gradientUnits="userSpaceOnUse">
<stop stop-color="#006946"/>
<stop offset="0.2513" stop-color="#008547"/>
<stop offset="0.3421" stop-color="#128F45"/>
<stop offset="0.5244" stop-color="#41AA41"/>
<stop offset="0.7788" stop-color="#8CD63A"/>
<stop offset="1" stop-color="#D3FF33"/>
</linearGradient>
<linearGradient id="paint9_linear_168_10332" x1="10.0447" y1="73.9487" x2="97.13" y2="-13.1366" gradientUnits="userSpaceOnUse">
<stop stop-color="#006946"/>
<stop offset="0.2513" stop-color="#008547"/>
<stop offset="0.3411" stop-color="#128F45"/>
<stop offset="0.5215" stop-color="#41AA41"/>
<stop offset="0.7732" stop-color="#8CD63A"/>
<stop offset="0.992" stop-color="#D3FF33"/>
</linearGradient>
<linearGradient id="paint10_linear_168_10332" x1="12.4407" y1="77.564" x2="90.2766" y2="-0.27166" gradientUnits="userSpaceOnUse">
<stop stop-color="#006946"/>
<stop offset="0.2513" stop-color="#008547"/>
<stop offset="0.3411" stop-color="#128F45"/>
<stop offset="0.5215" stop-color="#41AA41"/>
<stop offset="0.7732" stop-color="#8CD63A"/>
<stop offset="0.992" stop-color="#D3FF33"/>
</linearGradient>
<linearGradient id="paint11_linear_168_10332" x1="12.671" y1="72.1556" x2="48.1037" y2="36.7231" gradientUnits="userSpaceOnUse">
<stop stop-color="#DDFF59"/>
<stop offset="1" stop-color="white"/>
</linearGradient>
<linearGradient id="paint12_linear_168_10332" x1="-20.3814" y1="107.882" x2="40.5365" y2="46.9645" gradientUnits="userSpaceOnUse">
<stop stop-color="#DDFF59"/>
<stop offset="1" stop-color="white"/>
</linearGradient>
<linearGradient id="paint13_linear_168_10332" x1="22.1818" y1="72.3271" x2="57.8843" y2="36.6245" gradientUnits="userSpaceOnUse">
<stop stop-color="#DDFF59"/>
<stop offset="1" stop-color="white"/>
</linearGradient>
<linearGradient id="paint14_linear_168_10332" x1="-11.0257" y1="108.204" x2="50.228" y2="46.9505" gradientUnits="userSpaceOnUse">
<stop stop-color="#DDFF59"/>
<stop offset="1" stop-color="white"/>
</linearGradient>
<linearGradient id="paint15_linear_168_10332" x1="31.8153" y1="72.3643" x2="67.578" y2="36.6017" gradientUnits="userSpaceOnUse">
<stop stop-color="#DDFF59"/>
<stop offset="1" stop-color="white"/>
</linearGradient>
<linearGradient id="paint16_linear_168_10332" x1="-1.36726" y1="108.212" x2="59.8967" y2="46.9485" gradientUnits="userSpaceOnUse">
<stop stop-color="#DDFF59"/>
<stop offset="1" stop-color="white"/>
</linearGradient>
<linearGradient id="paint17_linear_168_10332" x1="12.9762" y1="81.4624" x2="47.9854" y2="46.4532" gradientUnits="userSpaceOnUse">
<stop stop-color="#DDFF59"/>
<stop offset="1" stop-color="white"/>
</linearGradient>
<linearGradient id="paint18_linear_168_10332" x1="-19.7388" y1="116.879" x2="40.5371" y2="56.603" gradientUnits="userSpaceOnUse">
<stop stop-color="#DDFF59"/>
<stop offset="1" stop-color="white"/>
</linearGradient>
<linearGradient id="paint19_linear_168_10332" x1="22.3179" y1="81.8693" x2="57.828" y2="46.3592" gradientUnits="userSpaceOnUse">
<stop stop-color="#DDFF59"/>
<stop offset="1" stop-color="white"/>
</linearGradient>
<linearGradient id="paint20_linear_168_10332" x1="-10.796" y1="117.653" x2="50.2241" y2="56.6334" gradientUnits="userSpaceOnUse">
<stop stop-color="#DDFF59"/>
<stop offset="1" stop-color="white"/>
</linearGradient>
<linearGradient id="paint21_linear_168_10332" x1="31.7815" y1="82.0564" x2="67.5827" y2="46.2551" gradientUnits="userSpaceOnUse">
<stop stop-color="#DDFF59"/>
<stop offset="1" stop-color="white"/>
</linearGradient>
<linearGradient id="paint22_linear_168_10332" x1="-1.55086" y1="118.032" x2="59.8884" y2="56.5928" gradientUnits="userSpaceOnUse">
<stop stop-color="#DDFF59"/>
<stop offset="1" stop-color="white"/>
</linearGradient>
<linearGradient id="paint23_linear_168_10332" x1="13.4058" y1="90.7349" x2="47.9293" y2="56.2116" gradientUnits="userSpaceOnUse">
<stop stop-color="#DDFF59"/>
<stop offset="1" stop-color="white"/>
</linearGradient>
<linearGradient id="paint24_linear_168_10332" x1="-18.9047" y1="125.754" x2="40.6008" y2="66.2484" gradientUnits="userSpaceOnUse">
<stop stop-color="#DDFF59"/>
<stop offset="1" stop-color="white"/>
</linearGradient>
<linearGradient id="paint25_linear_168_10332" x1="22.5251" y1="91.3724" x2="57.7808" y2="56.1167" gradientUnits="userSpaceOnUse">
<stop stop-color="#DDFF59"/>
<stop offset="1" stop-color="white"/>
</linearGradient>
<linearGradient id="paint26_linear_168_10332" x1="-10.4278" y1="126.982" x2="50.2308" y2="66.3236" gradientUnits="userSpaceOnUse">
<stop stop-color="#DDFF59"/>
<stop offset="1" stop-color="white"/>
</linearGradient>
<linearGradient id="paint27_linear_168_10332" x1="31.7672" y1="91.7095" x2="67.5448" y2="55.9319" gradientUnits="userSpaceOnUse">
<stop stop-color="#DDFF59"/>
<stop offset="1" stop-color="white"/>
</linearGradient>
<linearGradient id="paint28_linear_168_10332" x1="-1.64795" y1="127.73" x2="59.8382" y2="66.2434" gradientUnits="userSpaceOnUse">
<stop stop-color="#DDFF59"/>
<stop offset="1" stop-color="white"/>
</linearGradient>
<linearGradient id="paint29_linear_168_10332" x1="41.5713" y1="72.2669" x2="77.1842" y2="36.6539" gradientUnits="userSpaceOnUse">
<stop stop-color="#DDFF59"/>
<stop offset="1" stop-color="white"/>
</linearGradient>
<linearGradient id="paint30_linear_168_10332" x1="8.59312" y1="107.909" x2="69.5428" y2="46.959" gradientUnits="userSpaceOnUse">
<stop stop-color="#DDFF59"/>
<stop offset="1" stop-color="white"/>
</linearGradient>
<linearGradient id="paint31_linear_168_10332" x1="2.23379" y1="125.873" x2="86.7176" y2="41.3888" gradientUnits="userSpaceOnUse">
<stop stop-color="#006946"/>
<stop offset="0.2513" stop-color="#008547"/>
<stop offset="0.3421" stop-color="#128F45"/>
<stop offset="0.5244" stop-color="#41AA41"/>
<stop offset="0.7788" stop-color="#8CD63A"/>
<stop offset="1" stop-color="#D3FF33"/>
</linearGradient>
<linearGradient id="paint32_linear_168_10332" x1="-3.20202" y1="133.884" x2="86.5283" y2="44.1538" gradientUnits="userSpaceOnUse">
<stop stop-color="#006946"/>
<stop offset="0.2513" stop-color="#008547"/>
<stop offset="0.3421" stop-color="#128F45"/>
<stop offset="0.5244" stop-color="#41AA41"/>
<stop offset="0.7788" stop-color="#8CD63A"/>
<stop offset="1" stop-color="#D3FF33"/>
</linearGradient>
</defs>
</svg>
