<svg width="100" height="100" viewBox="0 0 100 100" fill="none" xmlns="http://www.w3.org/2000/svg">
<g clip-path="url(#clip0_168_10415)">
<path d="M50 100C77.6142 100 100 77.6142 100 50C100 22.3858 77.6142 0 50 0C22.3858 0 0 22.3858 0 50C0 77.6142 22.3858 100 50 100Z" fill="url(#paint0_linear_168_10415)"/>
<path d="M50 100C77.6142 100 100 77.6142 100 50C100 22.3858 77.6142 0 50 0C22.3858 0 0 22.3858 0 50C0 77.6142 22.3858 100 50 100Z" fill="url(#paint1_radial_168_10415)"/>
<path d="M75.3214 75.2854C58.5366 75.9799 41.752 75.9799 24.9673 75.2854C23.5874 75.2272 22.4051 74.0559 22.3355 72.6758C21.5871 57.5584 21.5871 42.4412 22.3355 27.3238C22.4051 25.9437 23.5874 24.7724 24.9673 24.7142C41.752 24.0197 58.5366 24.0197 75.3214 24.7142C76.7013 24.7724 77.8836 25.9437 77.9532 27.3238C78.7016 42.4412 78.7016 57.5584 77.9532 72.6758C77.8836 74.0559 76.7013 75.2274 75.3214 75.2854Z" fill="url(#paint2_linear_168_10415)"/>
<path d="M24.8485 27.2269C24.6982 30.5759 24.5812 33.925 24.4973 37.2742C32.9625 40.4485 41.5445 43.8482 50.1444 47.2663C58.7443 43.8482 67.3263 40.4485 75.7915 37.2742C75.7076 33.9251 75.5906 30.5761 75.4404 27.2269C58.5764 26.6015 41.7124 26.6015 24.8485 27.2269Z" fill="url(#paint3_linear_168_10415)"/>
<path d="M24.4973 37.2738C24.4553 38.9483 24.4216 40.6229 24.3962 42.2974C32.9283 45.5407 41.544 48.975 50.1444 52.393C58.7448 48.975 67.3605 45.5407 75.8925 42.2975C75.8672 40.623 75.8335 38.9485 75.7915 37.274C58.6934 36.9243 41.5953 36.9243 24.4973 37.2738Z" fill="url(#paint4_linear_168_10415)"/>
<path d="M24.3963 42.2974C24.2422 52.4562 24.393 62.6153 24.8485 72.7741C41.7124 73.3995 58.5764 73.3995 75.4404 72.7741C75.8959 62.6153 76.0466 52.4562 75.8926 42.2974C58.7271 42.0858 41.5617 42.0858 24.3963 42.2974Z" fill="url(#paint5_linear_168_10415)"/>
<path d="M29.4705 47.3008C29.4417 54.1608 29.5227 61.0208 29.7135 67.8808C43.3341 68.1939 56.9545 68.1939 70.5752 67.8808C70.8184 68.1662 29.5137 47.6516 29.4705 47.3008Z" fill="url(#paint6_linear_168_10415)"/>
<path d="M29.4707 47.3011C39.1904 60.2268 54.5749 68.3182 70.5752 67.8811C70.7659 61.0211 70.8468 54.1611 70.8181 47.3011C57.0356 47.2538 43.2532 47.2538 29.4707 47.3011Z" fill="url(#paint7_linear_168_10415)"/>
<path d="M47.4427 31.888C47.4384 33.3038 46.2972 34.4537 44.8931 34.4607C43.4891 34.4674 42.3616 33.3311 42.3771 31.9179C42.3928 30.5051 43.5368 29.3476 44.9292 29.338C46.3219 29.3283 47.4469 30.4724 47.4427 31.888Z" fill="url(#paint8_linear_168_10415)"/>
<path d="M32.2464 32.0645C32.2131 33.4671 31.0524 34.6227 29.6483 34.6494C28.2444 34.6761 27.1363 33.5726 27.181 32.1809C27.2255 30.7892 28.3967 29.6262 29.7891 29.5888C31.1816 29.551 32.2794 30.6619 32.2464 32.0645Z" fill="url(#paint9_linear_168_10415)"/>
<path d="M39.8446 31.9435C39.8259 33.3553 38.6748 34.5099 37.2709 34.5269C35.8668 34.5436 34.7491 33.4215 34.7792 32.0167C34.8093 30.612 35.9666 29.4498 37.3592 29.4261C38.7518 29.4025 39.8631 30.5319 39.8446 31.9435Z" fill="url(#paint10_linear_168_10415)"/>
<path d="M41.605 57.0831C41.6711 56.8408 41.7427 56.5104 41.8198 56.0918C41.93 55.5961 42.0181 55.2216 42.0842 54.9682C42.1503 54.7149 42.2384 54.5001 42.3485 54.3238C42.4697 54.1255 42.5744 53.9934 42.6625 53.9273C42.7616 53.8612 42.8663 53.8281 42.9764 53.8281C43.5492 53.8281 43.8356 54.0484 43.8356 54.489C43.8356 54.7093 43.7475 55.1224 43.5712 55.7283C42.9874 57.4907 42.5688 58.8566 42.3155 59.826C42.2053 60.2335 42.0401 60.5475 41.8198 60.7678C41.5995 60.9771 41.3021 61.0817 40.9276 61.0817C40.7403 61.0817 40.5475 60.9936 40.3493 60.8173C40.162 60.6301 40.0078 60.4043 39.8866 60.1399L39.7049 59.6938C39.3964 58.9117 39.1651 58.3114 39.0109 57.8928C38.8677 57.4632 38.7741 57.0776 38.73 56.7362L38.5813 57.2649C38.3169 58.2122 38.0416 59.0934 37.7552 59.9086C37.612 60.3272 37.4357 60.6301 37.2264 60.8173C37.0171 60.9936 36.7473 61.0817 36.4168 61.0817C36.2185 61.0817 36.0423 61.0376 35.8881 60.9495C35.7449 60.8614 35.6072 60.7127 35.475 60.5034C35.2987 60.217 35.128 59.8315 34.9628 59.3468C34.8086 58.8621 34.5827 58.1076 34.2853 57.0831C34.1421 56.6425 34.01 56.1799 33.8888 55.6952C33.7676 55.1995 33.707 54.8525 33.707 54.6543C33.707 54.423 33.7676 54.2412 33.8888 54.109C34.01 53.9768 34.1862 53.9107 34.4175 53.9107C34.7149 53.9107 34.9242 53.9713 35.0454 54.0925C35.1666 54.2026 35.2767 54.3734 35.3758 54.6047C35.4309 55.0013 35.5521 55.563 35.7394 56.29L36.1029 57.8432C36.1249 57.9644 36.191 58.2177 36.3011 58.6033L36.4333 59.0824C36.6757 58.5647 36.8794 58.069 37.0447 57.5954C37.2099 57.1217 37.3917 56.5379 37.5899 55.8439C37.6009 55.7999 37.7111 55.4198 37.9204 54.7038C38.0636 54.4725 38.1903 54.3018 38.3004 54.1916C38.4106 54.0705 38.5207 54.0099 38.6309 54.0099C38.8512 54.0099 39.0384 54.0815 39.1927 54.2247C39.3579 54.3569 39.479 54.5221 39.5562 54.7204C39.6883 55.15 39.804 55.541 39.9031 55.8935C39.9472 56.0367 40.0463 56.3837 40.2006 56.9344C40.3658 57.4742 40.5145 57.9313 40.6467 58.3058C40.7789 58.6804 40.889 58.9447 40.9771 59.0989L41.605 57.0831Z" fill="#AF50FF"/>
<path d="M52.6864 57.0831C52.7524 56.8408 52.824 56.5104 52.9012 56.0918C53.0113 55.5961 53.0994 55.2216 53.1655 54.9682C53.2316 54.7149 53.3197 54.5001 53.4299 54.3238C53.5511 54.1255 53.6557 53.9934 53.7438 53.9273C53.843 53.8612 53.9476 53.8281 54.0578 53.8281C54.6306 53.8281 54.917 54.0484 54.917 54.489C54.917 54.7093 54.8288 55.1224 54.6526 55.7283C54.0688 57.4907 53.6502 58.8566 53.3968 59.826C53.2867 60.2335 53.1215 60.5475 52.9012 60.7678C52.6808 60.9771 52.3834 61.0817 52.0089 61.0817C51.8217 61.0817 51.6289 60.9936 51.4306 60.8173C51.2433 60.6301 51.0891 60.4043 50.968 60.1399L50.7862 59.6938C50.4778 58.9117 50.2465 58.3114 50.0923 57.8928C49.9491 57.4632 49.8554 57.0776 49.8114 56.7362L49.6627 57.2649C49.3983 58.2122 49.1229 59.0934 48.8365 59.9086C48.6933 60.3272 48.5171 60.6301 48.3078 60.8173C48.0985 60.9936 47.8286 61.0817 47.4981 61.0817C47.2999 61.0817 47.1236 61.0376 46.9694 60.9495C46.8262 60.8614 46.6885 60.7127 46.5563 60.5034C46.3801 60.217 46.2094 59.8315 46.0441 59.3468C45.8899 58.8621 45.6641 58.1076 45.3667 57.0831C45.2235 56.6425 45.0913 56.1799 44.9701 55.6952C44.849 55.1995 44.7884 54.8525 44.7884 54.6543C44.7884 54.423 44.849 54.2412 44.9701 54.109C45.0913 53.9768 45.2675 53.9107 45.4989 53.9107C45.7963 53.9107 46.0056 53.9713 46.1267 54.0925C46.2479 54.2026 46.3581 54.3734 46.4572 54.6047C46.5123 55.0013 46.6334 55.563 46.8207 56.29L47.1842 57.8432C47.2062 57.9644 47.2723 58.2177 47.3825 58.6033L47.5147 59.0824C47.757 58.5647 47.9608 58.069 48.126 57.5954C48.2912 57.1217 48.473 56.5379 48.6713 55.8439C48.6823 55.7999 48.7924 55.4198 49.0017 54.7038C49.1449 54.4725 49.2716 54.3018 49.3818 54.1916C49.4919 54.0705 49.6021 54.0099 49.7122 54.0099C49.9325 54.0099 50.1198 54.0815 50.274 54.2247C50.4392 54.3569 50.5604 54.5221 50.6375 54.7204C50.7697 55.15 50.8854 55.541 50.9845 55.8935C51.0286 56.0367 51.1277 56.3837 51.2819 56.9344C51.4471 57.4742 51.5958 57.9313 51.728 58.3058C51.8602 58.6804 51.9704 58.9447 52.0585 59.0989L52.6864 57.0831Z" fill="#AF50FF"/>
<path d="M63.7677 57.0831C63.8338 56.8408 63.9054 56.5104 63.9825 56.0918C64.0927 55.5961 64.1808 55.2216 64.2469 54.9682C64.313 54.7149 64.4011 54.5001 64.5112 54.3238C64.6324 54.1255 64.7371 53.9934 64.8252 53.9273C64.9243 53.8612 65.029 53.8281 65.1391 53.8281C65.7119 53.8281 65.9983 54.0484 65.9983 54.489C65.9983 54.7093 65.9102 55.1224 65.7339 55.7283C65.1501 57.4907 64.7315 58.8566 64.4782 59.826C64.368 60.2335 64.2028 60.5475 63.9825 60.7678C63.7622 60.9771 63.4648 61.0817 63.0903 61.0817C62.903 61.0817 62.7102 60.9936 62.512 60.8173C62.3247 60.6301 62.1705 60.4043 62.0493 60.1399L61.8676 59.6938C61.5591 58.9117 61.3278 58.3114 61.1736 57.8928C61.0304 57.4632 60.9368 57.0776 60.8927 56.7362L60.744 57.2649C60.4796 58.2122 60.2043 59.0934 59.9179 59.9086C59.7747 60.3272 59.5984 60.6301 59.3891 60.8173C59.1798 60.9936 58.91 61.0817 58.5795 61.0817C58.3812 61.0817 58.205 61.0376 58.0508 60.9495C57.9076 60.8614 57.7699 60.7127 57.6377 60.5034C57.4614 60.217 57.2907 59.8315 57.1255 59.3468C56.9713 58.8621 56.7455 58.1076 56.448 57.0831C56.3048 56.6425 56.1727 56.1799 56.0515 55.6952C55.9303 55.1995 55.8697 54.8525 55.8697 54.6543C55.8697 54.423 55.9303 54.2412 56.0515 54.109C56.1727 53.9768 56.3489 53.9107 56.5802 53.9107C56.8776 53.9107 57.0869 53.9713 57.2081 54.0925C57.3293 54.2026 57.4394 54.3734 57.5386 54.6047C57.5936 55.0013 57.7148 55.563 57.9021 56.29L58.2656 57.8432C58.2876 57.9644 58.3537 58.2177 58.4638 58.6033L58.596 59.0824C58.9265 58.3885 59.1798 57.7881 59.3561 57.2814C59.5323 56.7637 59.7747 56.0202 60.0831 55.0508C60.2263 54.8195 60.353 54.6488 60.4631 54.5386C60.5733 54.4174 60.6834 54.3569 60.7936 54.3569C61.0139 54.3569 61.2011 54.4285 61.3554 54.5717C61.5206 54.7038 61.6418 54.8691 61.7189 55.0673L61.9502 55.7778C62.523 57.6284 62.9195 58.7354 63.1398 59.0989L63.7677 57.0831Z" fill="#AF50FF"/>
</g>
<defs>
<linearGradient id="paint0_linear_168_10415" x1="14.6447" y1="85.3553" x2="85.3555" y2="14.6445" gradientUnits="userSpaceOnUse">
<stop stop-color="#364AFF"/>
<stop offset="1" stop-color="#FC54FF"/>
</linearGradient>
<radialGradient id="paint1_radial_168_10415" cx="0" cy="0" r="1" gradientUnits="userSpaceOnUse" gradientTransform="translate(50.0002 50) scale(50.5078)">
<stop offset="0.095" stop-color="#8D00DB" stop-opacity="0.66"/>
<stop offset="0.2822" stop-color="#9F0DE1" stop-opacity="0.523"/>
<stop offset="0.6541" stop-color="#CC30F0" stop-opacity="0.252"/>
<stop offset="1" stop-color="#FC54FF" stop-opacity="0"/>
</radialGradient>
<linearGradient id="paint2_linear_168_10415" x1="-17.798" y1="117.942" x2="92.544" y2="7.60014" gradientUnits="userSpaceOnUse">
<stop stop-color="#FDA0FF"/>
<stop offset="1" stop-color="white"/>
</linearGradient>
<linearGradient id="paint3_linear_168_10415" x1="14.3089" y1="68.2615" x2="79.1242" y2="3.44639" gradientUnits="userSpaceOnUse">
<stop stop-color="#364AFF"/>
<stop offset="1" stop-color="#FC54FF"/>
</linearGradient>
<linearGradient id="paint4_linear_168_10415" x1="30.8247" y1="59.1557" x2="90.7818" y2="-0.801254" gradientUnits="userSpaceOnUse">
<stop stop-color="#FDA0FF"/>
<stop offset="1" stop-color="white"/>
</linearGradient>
<linearGradient id="paint5_linear_168_10415" x1="-33.6085" y1="141.062" x2="77.375" y2="30.079" gradientUnits="userSpaceOnUse">
<stop stop-color="#FDA0FF"/>
<stop offset="0.1317" stop-color="#FDB0FF"/>
<stop offset="0.5183" stop-color="#FEDBFF"/>
<stop offset="0.8208" stop-color="#FFF5FF"/>
<stop offset="1" stop-color="white"/>
</linearGradient>
<linearGradient id="paint6_linear_168_10415" x1="26.708" y1="80.9072" x2="67.7919" y2="39.8234" gradientUnits="userSpaceOnUse">
<stop stop-color="#FDA0FF"/>
<stop offset="1" stop-color="white"/>
</linearGradient>
<linearGradient id="paint7_linear_168_10415" x1="13.9113" y1="93.7028" x2="72.9862" y2="34.6279" gradientUnits="userSpaceOnUse">
<stop stop-color="#FDA0FF"/>
<stop offset="1" stop-color="white"/>
</linearGradient>
<linearGradient id="paint8_linear_168_10415" x1="35.2974" y1="41.5196" x2="47.6481" y2="29.1689" gradientUnits="userSpaceOnUse">
<stop stop-color="#B31DE7"/>
<stop offset="1" stop-color="#FDA0FF"/>
</linearGradient>
<linearGradient id="paint9_linear_168_10415" x1="19.9849" y1="41.8604" x2="32.4912" y2="29.3542" gradientUnits="userSpaceOnUse">
<stop stop-color="#B31DE7"/>
<stop offset="1" stop-color="#FDA0FF"/>
</linearGradient>
<linearGradient id="paint10_linear_168_10415" x1="33.3542" y1="35.9443" x2="43.5758" y2="25.7228" gradientUnits="userSpaceOnUse">
<stop stop-color="#FDA0FF"/>
<stop offset="1" stop-color="white"/>
</linearGradient>
<clipPath id="clip0_168_10415">
<rect width="100" height="100" fill="white"/>
</clipPath>
</defs>
</svg>
