<svg width="100" height="100" viewBox="0 0 100 100" fill="none" xmlns="http://www.w3.org/2000/svg">
<g clip-path="url(#clip0_168_10652)">
<path d="M50 100C77.6142 100 100 77.6142 100 50C100 22.3858 77.6142 0 50 0C22.3858 0 0 22.3858 0 50C0 77.6142 22.3858 100 50 100Z" fill="url(#paint0_linear_168_10652)"/>
<path d="M50 100C77.6142 100 100 77.6142 100 50C100 22.3858 77.6142 0 50 0C22.3858 0 0 22.3858 0 50C0 77.6142 22.3858 100 50 100Z" fill="url(#paint1_radial_168_10652)"/>
<path d="M71.5403 32.4454C64.3621 32.2467 57.1837 32.1474 50.0054 32.1474C48.2348 30.2457 46.4783 28.35 44.7425 26.466C43.8622 25.5109 42.6352 24.9798 41.3429 25.0006C37.1384 25.0675 32.9341 25.1833 28.7296 25.3477C26.1427 25.453 23.9278 27.6576 23.814 30.2448C23.648 34.1558 23.5303 38.0668 23.4612 41.9778C41.1573 41.6988 58.8535 41.6988 76.5497 41.9778C76.522 40.4134 76.4866 38.849 76.4434 37.2846C76.3693 34.6974 74.16 32.5219 71.5403 32.4454Z" fill="url(#paint2_linear_168_10652)"/>
<path d="M71.5403 32.4454C64.3621 32.2467 57.1837 32.1474 50.0054 32.1474C48.2348 30.2457 46.4783 28.35 44.7425 26.466C43.8622 25.5109 42.6352 24.9798 41.3429 25.0006C37.1384 25.0675 32.9341 25.1833 28.7296 25.3477C26.1427 25.453 23.9278 27.6576 23.814 30.2448C23.648 34.1558 23.5303 38.0668 23.4612 41.9778C41.1573 41.6988 58.8535 41.6988 76.5497 41.9778C76.522 40.4134 76.4866 38.849 76.4434 37.2846C76.3693 34.6974 74.16 32.5219 71.5403 32.4454Z" fill="url(#paint3_linear_168_10652)"/>
<path d="M23.461 41.9787C23.2841 51.9908 23.4246 62.003 23.8828 72.0151C23.9637 73.741 25.4394 75.2101 27.1651 75.2842C42.3918 75.9236 57.6187 75.9236 72.8455 75.2842C74.5713 75.2101 76.0469 73.7408 76.1278 72.0151C76.5858 62.003 76.7265 51.9908 76.5495 41.9787C76.502 39.3912 74.3013 37.2354 71.6653 37.1782C57.2253 36.8859 42.7851 36.8859 28.3451 37.1782C25.7092 37.2354 23.5086 39.3912 23.461 41.9787Z" fill="url(#paint4_linear_168_10652)"/>
<path d="M30.8062 55.3885C28.124 52.7298 25.6363 49.9028 23.3994 46.9375C23.3391 55.2965 23.5003 63.6558 23.8828 72.0148C23.9637 73.7413 25.4387 75.2098 27.165 75.2839C39.7423 75.8121 52.3195 75.9039 64.8968 75.5596C52.3167 72.2166 40.4213 64.8866 30.8062 55.3885Z" fill="url(#paint5_linear_168_10652)"/>
</g>
<defs>
<linearGradient id="paint0_linear_168_10652" x1="14.6447" y1="85.3553" x2="85.3553" y2="14.6447" gradientUnits="userSpaceOnUse">
<stop stop-color="#FF726D"/>
<stop offset="1" stop-color="#FFDE00"/>
</linearGradient>
<radialGradient id="paint1_radial_168_10652" cx="0" cy="0" r="1" gradientUnits="userSpaceOnUse" gradientTransform="translate(50.198 54.7535) scale(50)">
<stop stop-color="#FF726D"/>
<stop offset="0.2243" stop-color="#FF7966" stop-opacity="0.765"/>
<stop offset="0.5582" stop-color="#FF8E51" stop-opacity="0.415"/>
<stop offset="0.9537" stop-color="#FFAE31" stop-opacity="0"/>
</radialGradient>
<linearGradient id="paint2_linear_168_10652" x1="35.1302" y1="50.2384" x2="70.4427" y2="14.9259" gradientUnits="userSpaceOnUse">
<stop stop-color="#FCB000"/>
<stop offset="0.344" stop-color="#FDCE62"/>
<stop offset="0.6655" stop-color="#FEE8B6"/>
<stop offset="0.8906" stop-color="#FFF9EB"/>
<stop offset="1" stop-color="white"/>
</linearGradient>
<linearGradient id="paint3_linear_168_10652" x1="50.0053" y1="42.6712" x2="50.0053" y2="30.6514" gradientUnits="userSpaceOnUse">
<stop stop-color="#FCA200" stop-opacity="0.5"/>
<stop offset="0.1286" stop-color="#FCA405" stop-opacity="0.436"/>
<stop offset="0.2743" stop-color="#FCA812" stop-opacity="0.363"/>
<stop offset="0.4283" stop-color="#FCB029" stop-opacity="0.286"/>
<stop offset="0.5881" stop-color="#FDBC49" stop-opacity="0.206"/>
<stop offset="0.7524" stop-color="#FDCA72" stop-opacity="0.124"/>
<stop offset="0.9181" stop-color="#FEDBA3" stop-opacity="0.041"/>
<stop offset="1" stop-color="#FEE5BE" stop-opacity="0"/>
</linearGradient>
<linearGradient id="paint4_linear_168_10652" x1="17.9135" y1="88.5536" x2="88.0385" y2="18.4287" gradientUnits="userSpaceOnUse">
<stop stop-color="#FCB000"/>
<stop offset="0.2136" stop-color="#FDC749"/>
<stop offset="0.4253" stop-color="#FEDB8A"/>
<stop offset="0.6156" stop-color="#FEEABC"/>
<stop offset="0.7808" stop-color="#FFF6E1"/>
<stop offset="0.9145" stop-color="#FFFCF7"/>
<stop offset="1" stop-color="white"/>
</linearGradient>
<linearGradient id="paint5_linear_168_10652" x1="25.2524" y1="80.1442" x2="57.8487" y2="47.5479" gradientUnits="userSpaceOnUse">
<stop stop-color="#FCA200"/>
<stop offset="0.0848" stop-color="#FCA509"/>
<stop offset="0.2246" stop-color="#FCAE22"/>
<stop offset="0.4018" stop-color="#FDBD4B"/>
<stop offset="0.6097" stop-color="#FED283"/>
<stop offset="0.8405" stop-color="#FEECCA"/>
<stop offset="1" stop-color="white"/>
</linearGradient>
<clipPath id="clip0_168_10652">
<rect width="100" height="100" fill="white"/>
</clipPath>
</defs>
</svg>
