<svg width="100" height="100" viewBox="0 0 100 100" fill="none" xmlns="http://www.w3.org/2000/svg">
<g clip-path="url(#clip0_168_10399)">
<path d="M50 100C77.6142 100 100 77.6142 100 50C100 22.3858 77.6142 0 50 0C22.3858 0 0 22.3858 0 50C0 77.6142 22.3858 100 50 100Z" fill="url(#paint0_linear_168_10399)"/>
<path d="M50 100C77.6142 100 100 77.6142 100 50C100 22.3858 77.6142 0 50 0C22.3858 0 0 22.3858 0 50C0 77.6142 22.3858 100 50 100Z" fill="url(#paint1_radial_168_10399)"/>
<path d="M80.4196 46.4544C80.3614 45.997 80.0076 45.6241 79.5446 45.5304C77.831 45.1837 76.1176 44.8354 74.4044 44.4862C73.7522 41.753 72.6275 39.1814 71.1317 36.8495C72.0751 35.427 73.0121 34.0101 73.9412 32.5998C74.1921 32.2191 74.1601 31.7101 73.862 31.3382C73.1039 30.3922 72.2852 29.4756 71.4051 28.5955C70.5251 27.7153 69.6084 26.8967 68.6625 26.1387C68.2905 25.8406 67.7817 25.8085 67.401 26.0595C65.9907 26.9886 64.5737 27.9256 63.1513 28.869C60.8194 27.3733 58.2479 26.2485 55.5146 25.5963C55.1654 23.883 54.8171 22.1697 54.4703 20.456C54.3767 19.9931 54.0037 19.6393 53.5462 19.581C52.3825 19.433 51.1997 19.3555 50 19.3555C48.8004 19.3555 47.6177 19.433 46.4538 19.581C45.9964 19.6393 45.6235 19.9931 45.5297 20.456C45.183 22.1697 44.8347 23.883 44.4854 25.5963C41.7521 26.2485 39.1806 27.3733 36.8488 28.869C35.4263 27.9256 34.0093 26.9886 32.5991 26.0595C32.2183 25.8085 31.7094 25.8406 31.3376 26.1387C30.3916 26.8969 29.475 27.7155 28.5949 28.5955C27.7148 29.4756 26.8961 30.3922 26.1381 31.3382C25.8399 31.7101 25.8079 32.2189 26.0589 32.5998C26.988 34.0101 27.925 35.427 28.8684 36.8495C27.3727 39.1812 26.2479 41.7529 25.5957 44.4862C23.8826 44.8354 22.1691 45.1837 20.4554 45.5304C19.9925 45.6241 19.6387 45.997 19.5804 46.4544C19.4324 47.6183 19.3549 48.8009 19.3549 50.0006C19.3549 51.2002 19.4322 52.3831 19.5804 53.5468C19.6387 54.0042 19.9925 54.3772 20.4554 54.471C22.1691 54.8177 23.8824 55.166 25.5957 55.5152C26.2479 58.2485 27.3727 60.82 28.8684 63.1519C27.925 64.5744 26.988 65.9913 26.0589 67.4016C25.8079 67.7825 25.8399 68.2913 26.1381 68.6632C26.8961 69.6091 27.7148 70.5258 28.5949 71.4059C29.475 72.2859 30.3916 73.1047 31.3376 73.8627C31.7095 74.1609 32.2183 74.1929 32.5991 73.9419C34.0093 73.0128 35.4263 72.0758 36.8488 71.1324C39.1806 72.6281 41.752 73.7529 44.4854 74.4051C44.8347 76.1182 45.183 77.8317 45.5297 79.5452C45.6235 80.0083 45.9963 80.362 46.4538 80.4202C47.6177 80.5683 48.8003 80.6458 50 80.6458C51.1996 80.6458 52.3823 80.5684 53.5462 80.4202C54.0036 80.3621 54.3765 80.0082 54.4703 79.5452C54.8171 77.8317 55.1654 76.1182 55.5146 74.4051C58.2479 73.7531 60.8194 72.6281 63.1513 71.1324C64.5739 72.0758 65.9907 73.0128 67.401 73.9419C67.7817 74.1927 68.2907 74.1609 68.6625 73.8627C69.6084 73.1047 70.5251 72.2859 71.4051 71.4059C72.2852 70.5258 73.1039 69.6092 73.862 68.6632C74.1601 68.2913 74.1921 67.7825 73.9412 67.4016C73.0121 65.9913 72.0751 64.5744 71.1317 63.1519C72.6274 60.8202 73.7522 58.2487 74.4044 55.5152C76.1176 55.166 77.831 54.8177 79.5446 54.471C80.0076 54.3772 80.3614 54.0042 80.4196 53.5468C80.5677 52.3831 80.6452 51.2004 80.6452 50.0006C80.6452 48.801 80.5678 47.6182 80.4196 46.4544Z" fill="url(#paint2_linear_168_10399)"/>
<path d="M50.0001 70.6974C61.4303 70.6974 70.6964 61.4313 70.6964 50.001C70.6964 38.5708 61.4303 29.3047 50.0001 29.3047C38.5698 29.3047 29.3037 38.5708 29.3037 50.001C29.3037 61.4313 38.5698 70.6974 50.0001 70.6974Z" fill="url(#paint3_linear_168_10399)"/>
<path d="M50.0001 70.6974C61.4303 70.6974 70.6964 61.4313 70.6964 50.001C70.6964 38.5708 61.4303 29.3047 50.0001 29.3047C38.5698 29.3047 29.3037 38.5708 29.3037 50.001C29.3037 61.4313 38.5698 70.6974 50.0001 70.6974Z" fill="url(#paint4_radial_168_10399)"/>
<path d="M50.0001 66.3406C59.024 66.3406 66.3394 59.0253 66.3394 50.0014C66.3394 40.9774 59.024 33.6621 50.0001 33.6621C40.9762 33.6621 33.6609 40.9774 33.6609 50.0014C33.6609 59.0253 40.9762 66.3406 50.0001 66.3406Z" fill="url(#paint5_linear_168_10399)"/>
<path d="M50.0002 64.1612C57.8209 64.1612 64.1608 57.8213 64.1608 50.0005C64.1608 42.1798 57.8209 35.8398 50.0002 35.8398C42.1794 35.8398 35.8395 42.1798 35.8395 50.0005C35.8395 57.8213 42.1794 64.1612 50.0002 64.1612Z" fill="url(#paint6_linear_168_10399)"/>
<path d="M57.076 45.1043C57.0832 49.0076 53.9091 52.1771 50 52.1783C46.091 52.1771 42.9169 49.0076 42.9241 45.1043C42.9336 41.2013 46.1077 38.0186 50 38.0176C53.8922 38.0186 57.0665 41.2013 57.076 45.1043Z" fill="url(#paint7_linear_168_10399)"/>
<path d="M52.1783 47.822C48.2681 47.8203 45.0985 44.6535 45.1092 40.7472C45.1099 40.4794 45.1266 40.2154 45.1562 39.9551C43.7881 41.2489 42.9278 43.078 42.9241 45.1048C42.9167 49.0081 46.091 52.1775 50 52.1788C53.641 52.1781 56.6433 49.4268 57.0319 45.8962C55.7664 47.0888 54.0587 47.8224 52.1783 47.822Z" fill="url(#paint8_linear_168_10399)"/>
<path d="M42.3791 54.3516C41.2199 54.3496 40.1681 54.8006 39.3904 55.5347C41.4053 59.3508 45.4066 61.9831 50.0005 61.9831C54.5942 61.9832 58.5955 59.351 60.6104 55.5349C59.8325 54.8006 58.7807 54.3497 57.6215 54.3516C52.5406 54.3604 47.4599 54.3604 42.3791 54.3516Z" fill="url(#paint9_linear_168_10399)"/>
</g>
<defs>
<linearGradient id="paint0_linear_168_10399" x1="14.6445" y1="85.3553" x2="85.3553" y2="14.6445" gradientUnits="userSpaceOnUse">
<stop stop-color="#0056E0"/>
<stop offset="1" stop-color="#85FFE0"/>
</linearGradient>
<radialGradient id="paint1_radial_168_10399" cx="0" cy="0" r="1" gradientUnits="userSpaceOnUse" gradientTransform="translate(50 50) scale(50)">
<stop stop-color="#0072FF"/>
<stop offset="1" stop-color="#85FFE0" stop-opacity="0"/>
</radialGradient>
<linearGradient id="paint2_linear_168_10399" x1="8.04422" y1="91.9566" x2="105.776" y2="-5.77536" gradientUnits="userSpaceOnUse">
<stop stop-color="#73ECFF"/>
<stop offset="0.5" stop-color="#85FFE0"/>
<stop offset="0.617" stop-color="#9DFFE6"/>
<stop offset="0.8626" stop-color="#DAFFF6"/>
<stop offset="1" stop-color="white"/>
</linearGradient>
<linearGradient id="paint3_linear_168_10399" x1="31.6577" y1="68.3434" x2="93.9958" y2="6.00527" gradientUnits="userSpaceOnUse">
<stop stop-color="#389FFF"/>
<stop offset="0.1139" stop-color="#45AFFA"/>
<stop offset="0.5397" stop-color="#73E9E7"/>
<stop offset="0.7447" stop-color="#85FFE0"/>
<stop offset="0.8554" stop-color="#9DFFE6"/>
<stop offset="1" stop-color="#C2FFF0"/>
</linearGradient>
<radialGradient id="paint4_radial_168_10399" cx="0" cy="0" r="1" gradientUnits="userSpaceOnUse" gradientTransform="translate(50.0001 50.001) scale(32.8522)">
<stop stop-color="#85FFE0" stop-opacity="0"/>
<stop offset="0.1706" stop-color="#81FBE1" stop-opacity="0.171"/>
<stop offset="0.339" stop-color="#76EFE3" stop-opacity="0.339"/>
<stop offset="0.5067" stop-color="#63DBE8" stop-opacity="0.507"/>
<stop offset="0.674" stop-color="#49C0EE" stop-opacity="0.674"/>
<stop offset="0.8392" stop-color="#289CF6" stop-opacity="0.839"/>
<stop offset="1" stop-color="#0072FF"/>
</radialGradient>
<linearGradient id="paint5_linear_168_10399" x1="12.0439" y1="87.9575" x2="75.3502" y2="24.6513" gradientUnits="userSpaceOnUse">
<stop stop-color="#389FFF"/>
<stop offset="0.1139" stop-color="#45AFFA"/>
<stop offset="0.5397" stop-color="#73E9E7"/>
<stop offset="0.7447" stop-color="#85FFE0"/>
<stop offset="0.8044" stop-color="#9DFFE6"/>
<stop offset="0.9298" stop-color="#DAFFF6"/>
<stop offset="1" stop-color="white"/>
</linearGradient>
<linearGradient id="paint6_linear_168_10399" x1="-17.574" y1="117.575" x2="62.6726" y2="37.3281" gradientUnits="userSpaceOnUse">
<stop stop-color="#73ECFF"/>
<stop offset="0.5" stop-color="#85FFE0"/>
<stop offset="0.617" stop-color="#9DFFE6"/>
<stop offset="0.8626" stop-color="#DAFFF6"/>
<stop offset="1" stop-color="white"/>
</linearGradient>
<linearGradient id="paint7_linear_168_10399" x1="14.5322" y1="80.5754" x2="67.8527" y2="27.2547" gradientUnits="userSpaceOnUse">
<stop stop-color="#230BE0"/>
<stop offset="0.5" stop-color="#0056E0"/>
<stop offset="1" stop-color="#85FFE0"/>
</linearGradient>
<linearGradient id="paint8_linear_168_10399" x1="19.3512" y1="75.7578" x2="68.0089" y2="27.1002" gradientUnits="userSpaceOnUse">
<stop stop-color="#230BE0"/>
<stop offset="0.5" stop-color="#0056E0"/>
<stop offset="1" stop-color="#85FFE0"/>
</linearGradient>
<linearGradient id="paint9_linear_168_10399" x1="8.35726" y1="97.5609" x2="72.8211" y2="33.0971" gradientUnits="userSpaceOnUse">
<stop stop-color="#230BE0"/>
<stop offset="0.5" stop-color="#0056E0"/>
<stop offset="1" stop-color="#85FFE0"/>
</linearGradient>
<clipPath id="clip0_168_10399">
<rect width="100" height="100" fill="white"/>
</clipPath>
</defs>
</svg>
