<svg width="100" height="100" viewBox="0 0 100 100" fill="none" xmlns="http://www.w3.org/2000/svg">
<path d="M50 100C77.6142 100 100 77.6142 100 50C100 22.3858 77.6142 0 50 0C22.3858 0 0 22.3858 0 50C0 77.6142 22.3858 100 50 100Z" fill="url(#paint0_linear_168_10433)"/>
<path d="M50 100C77.6142 100 100 77.6142 100 50C100 22.3858 77.6142 0 50 0C22.3858 0 0 22.3858 0 50C0 77.6142 22.3858 100 50 100Z" fill="url(#paint1_radial_168_10433)"/>
<path d="M40.1958 69.6424C42.9429 72.7899 45.6699 75.9401 48.3575 79.0664C48.7554 79.5248 49.3291 79.8159 49.97 79.8161C50.6106 79.8161 51.1848 79.5247 51.5796 79.0664C51.5514 79.08 59.7375 69.6283 59.761 69.623C53.239 69.7367 46.7173 69.7432 40.1958 69.6424Z" fill="url(#paint2_linear_168_10433)"/>
<path d="M74.1327 44.4835C73.9697 31.5942 62.8904 20.2275 49.97 20.1621C37.0493 20.2273 25.9704 31.5942 25.8071 44.4835C25.7584 50.4497 28.0816 55.909 31.8672 60.1777C31.8637 60.1734 36.0532 64.8899 40.1958 69.6418C45.468 75.6843 54.4968 75.6772 59.7608 69.6226C63.8985 64.8769 68.0773 60.1733 68.0748 60.1777C71.8585 55.9093 74.1815 50.4497 74.1327 44.4835Z" fill="url(#paint3_linear_168_10433)"/>
<path d="M69.7394 44.4375C69.7948 55.1126 60.8006 64.0936 49.9699 64.1322C39.1396 64.0939 30.1453 55.1126 30.2004 44.4375C30.3041 33.7658 39.2982 24.5939 49.9699 24.5586C60.6417 24.5942 69.6358 33.7657 69.7394 44.4375Z" fill="url(#paint4_linear_168_10433)"/>
<path d="M65.3462 44.4025C65.383 52.7833 58.431 59.7182 49.9699 59.7365C41.5086 59.7183 34.5572 52.783 34.5936 44.4025C34.6534 36.0238 41.6046 28.9735 49.9699 28.957C58.3354 28.9736 65.2867 36.0237 65.3462 44.4025Z" fill="url(#paint5_linear_168_10433)"/>
<path d="M65.3462 44.4025C65.383 52.7833 58.431 59.7182 49.9699 59.7365C41.5086 59.7183 34.5572 52.783 34.5936 44.4025C34.6534 36.0238 41.6046 28.9735 49.9699 28.957C58.3354 28.9736 65.2867 36.0237 65.3462 44.4025Z" fill="url(#paint6_radial_168_10433)"/>
<path d="M60.9531 44.3746C60.9736 50.4027 56.0316 55.3318 49.97 55.3388C43.9084 55.3323 38.9666 50.4025 38.9869 44.3746C39.0156 38.3479 43.9572 33.3592 49.97 33.3535C55.9823 33.3594 60.9245 38.3476 60.9531 44.3746Z" fill="url(#paint7_linear_168_10433)"/>
<path d="M52.1683 50.9413C46.0992 50.9375 41.1677 46.0228 41.1999 39.9812C41.2043 39.0901 41.3179 38.2238 41.5235 37.3926C39.9516 39.3018 38.9955 41.7332 38.9866 44.3743C38.9663 50.4023 43.9082 55.3315 49.9697 55.3385C55.1397 55.3362 59.4897 51.7415 60.6489 46.9544C58.6373 49.3806 55.5828 50.9407 52.1683 50.9413Z" fill="url(#paint8_linear_168_10433)"/>
<defs>
<linearGradient id="paint0_linear_168_10433" x1="14.6445" y1="85.3553" x2="85.3551" y2="14.6447" gradientUnits="userSpaceOnUse">
<stop stop-color="#FF2F2B"/>
<stop offset="1" stop-color="#FF9CEB"/>
</linearGradient>
<radialGradient id="paint1_radial_168_10433" cx="0" cy="0" r="1" gradientUnits="userSpaceOnUse" gradientTransform="translate(50.2969 44.058) scale(57.6701)">
<stop stop-color="#FF2F2B"/>
<stop offset="0.0743" stop-color="#FF3A3F" stop-opacity="0.926"/>
<stop offset="0.317" stop-color="#FF5D7C" stop-opacity="0.683"/>
<stop offset="0.5395" stop-color="#FF78AC" stop-opacity="0.461"/>
<stop offset="0.7346" stop-color="#FF8CCE" stop-opacity="0.265"/>
<stop offset="0.8947" stop-color="#FF98E3" stop-opacity="0.105"/>
<stop offset="1" stop-color="#FF9CEB" stop-opacity="0"/>
</radialGradient>
<linearGradient id="paint2_linear_168_10433" x1="37.6587" y1="82.5877" x2="92.5541" y2="27.6922" gradientUnits="userSpaceOnUse">
<stop stop-color="#FFA9D4"/>
<stop offset="0.2953" stop-color="#FFC6E3"/>
<stop offset="0.7601" stop-color="#FFEFF7"/>
<stop offset="1" stop-color="white"/>
</linearGradient>
<linearGradient id="paint3_linear_168_10433" x1="6.33008" y1="88.6946" x2="91.1764" y2="3.84836" gradientUnits="userSpaceOnUse">
<stop stop-color="#FFA9D4"/>
<stop offset="0.2953" stop-color="#FFC6E3"/>
<stop offset="0.7601" stop-color="#FFEFF7"/>
<stop offset="1" stop-color="white"/>
</linearGradient>
<linearGradient id="paint4_linear_168_10433" x1="-44.6063" y1="139.027" x2="64.7648" y2="29.6561" gradientUnits="userSpaceOnUse">
<stop stop-color="#FFA9D4"/>
<stop offset="0.2953" stop-color="#FFC6E3"/>
<stop offset="0.7601" stop-color="#FFEFF7"/>
<stop offset="1" stop-color="white"/>
</linearGradient>
<linearGradient id="paint5_linear_168_10433" x1="12.392" y1="81.9886" x2="97.6772" y2="-3.29658" gradientUnits="userSpaceOnUse">
<stop stop-color="#FFA9D4"/>
<stop offset="0.2953" stop-color="#FFC6E3"/>
<stop offset="0.7601" stop-color="#FFEFF7"/>
<stop offset="1" stop-color="white"/>
</linearGradient>
<radialGradient id="paint6_radial_168_10433" cx="0" cy="0" r="1" gradientUnits="userSpaceOnUse" gradientTransform="translate(49.9699 44.3469) scale(23.8107 23.8106)">
<stop stop-color="#FF9CEB" stop-opacity="0"/>
<stop offset="0.287" stop-color="#FF9BE9" stop-opacity="0.287"/>
<stop offset="0.436" stop-color="#FF96E1" stop-opacity="0.436"/>
<stop offset="0.5533" stop-color="#FF8FD3" stop-opacity="0.553"/>
<stop offset="0.6541" stop-color="#FF84C0" stop-opacity="0.654"/>
<stop offset="0.7443" stop-color="#FF76A8" stop-opacity="0.744"/>
<stop offset="0.8269" stop-color="#FF6489" stop-opacity="0.827"/>
<stop offset="0.9038" stop-color="#FF5065" stop-opacity="0.904"/>
<stop offset="0.9742" stop-color="#FF393C" stop-opacity="0.974"/>
<stop offset="1" stop-color="#FF2F2B"/>
</radialGradient>
<linearGradient id="paint7_linear_168_10433" x1="33.184" y1="61.1647" x2="69.2643" y2="25.0844" gradientUnits="userSpaceOnUse">
<stop stop-color="#FF2F2B"/>
<stop offset="1" stop-color="#FF9CEB"/>
</linearGradient>
<linearGradient id="paint8_linear_168_10433" x1="39.5106" y1="54.8743" x2="64.423" y2="29.9619" gradientUnits="userSpaceOnUse">
<stop stop-color="#FF2F2B"/>
<stop offset="1" stop-color="#FF9CEB"/>
</linearGradient>
</defs>
</svg>
