<svg width="196" height="196" viewBox="0 0 196 196" fill="none" xmlns="http://www.w3.org/2000/svg">
<path d="M0 98C0 123.991 10.325 148.918 28.7035 167.296C47.0821 185.675 72.0088 196 98 196C123.991 196 148.918 185.675 167.296 167.296C185.675 148.918 196 123.991 196 98C196 72.0088 185.675 47.0821 167.296 28.7035C148.918 10.325 123.991 0 98 0C72.0088 0 47.0821 10.325 28.7035 28.7035C10.325 47.0821 0 72.0088 0 98Z" fill="#8FBFFA"/>
<path d="M63 70C63 79.2826 66.6875 88.185 73.2513 94.7487C79.815 101.313 88.7174 105 98 105C107.283 105 116.185 101.313 122.749 94.7487C129.313 88.185 133 79.2826 133 70C133 60.7174 129.313 51.815 122.749 45.2513C116.185 38.6875 107.283 35 98 35C88.7174 35 79.815 38.6875 73.2513 45.2513C66.6875 51.815 63 60.7174 63 70Z" fill="#2859C5"/>
<path d="M157.402 147C150.184 138.234 141.114 131.177 130.843 126.335C120.571 121.494 109.355 118.989 98 119C86.645 118.989 75.4286 121.494 65.1574 126.335C54.8863 131.177 45.8157 138.234 38.598 147C45.8157 155.766 54.8863 162.824 65.1574 167.665C75.4286 172.506 86.645 175.012 98 175C109.355 175.012 120.571 172.506 130.843 167.665C141.114 162.824 150.184 155.766 157.402 147Z" fill="#2859C5"/>
</svg>
