<svg width="85" height="85" viewBox="0 0 85 85" fill="none" xmlns="http://www.w3.org/2000/svg">
<ellipse cx="42.1554" cy="42.5" rx="42.1554" ry="42.5" fill="#00B074" fill-opacity="0.15"/>
<path d="M18.6519 64.2747C21.8187 64.2747 24.4063 61.6627 24.4063 58.466V21.041H58.0061V58.466C58.0061 61.6627 55.4185 64.2747 52.2516 64.2747" fill="#00B074"/>
<path d="M46.4972 58.4658V54.0605H12.8975V58.4658C12.8975 61.6625 15.485 64.2745 18.6519 64.2745H52.2517C49.0848 64.2745 46.4972 61.6625 46.4972 58.4658Z" fill="#0A5239"/>
<path d="M34.718 28.4868H30.4312V30.3581H34.718V28.4868Z" fill="#F7C604"/>
<path d="M51.2089 28.4868H38.0393V30.3581H51.2089V28.4868Z" fill="#F3F2F7"/>
<path d="M34.718 35.1143H30.4312V36.9855H34.718V35.1143Z" fill="#F7C604"/>
<path d="M51.2089 35.1143H38.0393V36.9855H51.2089V35.1143Z" fill="#F3F2F7"/>
<path d="M34.718 41.7417H30.4312V43.6129H34.718V41.7417Z" fill="#F7C604"/>
<path d="M51.2089 41.7417H38.0393V43.6129H51.2089V41.7417Z" fill="#F3F2F7"/>
<path d="M34.718 48.3691H30.4312V50.2404H34.718V48.3691Z" fill="#F7C604"/>
<path d="M51.2089 48.3691H38.0393V50.2404H51.2089V48.3691Z" fill="#F3F2F7"/>
<path opacity="0.1" d="M58.0062 48.6812V26.4212C57.5427 26.3432 57.0406 26.3042 56.5386 26.3042C50.3979 26.3042 45.4159 31.3332 45.4159 37.5317C45.4159 43.7302 50.3979 48.7592 56.5386 48.7592C57.0406 48.7982 57.5427 48.7592 58.0062 48.6812Z" fill="#0C1E5B"/>
<path d="M60.4399 46.5373C66.5829 46.5373 71.5627 41.5105 71.5627 35.3096C71.5627 29.1088 66.5829 24.082 60.4399 24.082C54.297 24.082 49.3171 29.1088 49.3171 35.3096C49.3171 41.5105 54.297 46.5373 60.4399 46.5373Z" fill="#FF5B5B"/>
<path d="M64.8063 30.731L55.7267 39.8848M55.7267 30.731L64.8063 39.8848" stroke="white" stroke-width="4"/>
<path d="M64.8063 30.731L55.7267 39.8848M55.7267 30.731L64.8063 39.8848" stroke="white" stroke-width="4"/>
</svg>
