<svg width="90" height="90" viewBox="0 0 90 90" fill="none" xmlns="http://www.w3.org/2000/svg">
<circle cx="45" cy="45" r="40" fill="#D83333" fill-opacity="0.6"/>
<circle cx="45" cy="45" r="44" stroke="#D83333" stroke-opacity="0.3" stroke-width="2"/>
<circle cx="45" cy="45" r="35" fill="#D83333"/>
<path d="M54.5259 30.0728C55.9563 28.6427 58.2752 28.6426 59.7056 30.0728C61.136 31.5032 61.136 33.8229 59.7056 35.2534L50.0688 44.8892L59.7056 54.5259C61.1359 55.9564 61.136 58.2751 59.7056 59.7056C58.2751 61.136 55.9564 61.1359 54.5259 59.7056L44.8892 50.0688L35.2534 59.7056C33.8229 61.136 31.5032 61.136 30.0728 59.7056C28.6426 58.2752 28.6426 55.9563 30.0728 54.5259L39.7085 44.8892L30.0728 35.2534C28.6423 33.8229 28.6423 31.5032 30.0728 30.0728C31.5032 28.6423 33.8229 28.6423 35.2534 30.0728L44.8892 39.7085L54.5259 30.0728Z" fill="white"/>
</svg>
