<svg width="90" height="90" viewBox="0 0 90 90" fill="none" xmlns="http://www.w3.org/2000/svg">
<circle cx="45" cy="45" r="40" fill="#D83333" fill-opacity="0.6"/>
<circle cx="45" cy="45" r="44" stroke="#D83333" stroke-opacity="0.3" stroke-width="2"/>
<circle cx="45" cy="45" r="35" fill="#D83333"/>
<path d="M55.3384 31.9725H49.8762V30.9794C49.8762 29.3339 48.5424 28 46.8969 28H42.9244C41.2789 28 39.945 29.3339 39.945 30.9794V31.9725H34.4828C33.1116 31.9725 32 33.0841 32 34.4553V36.4416C32 36.9901 32.4446 37.4347 32.9931 37.4347H56.8281C57.3766 37.4347 57.8212 36.9901 57.8212 36.4416V34.4553C57.8212 33.0841 56.7096 31.9725 55.3384 31.9725ZM41.9312 30.9794C41.9312 30.4319 42.3769 29.9863 42.9244 29.9863H46.8969C47.4443 29.9863 47.89 30.4319 47.89 30.9794V31.9725H41.9312V30.9794Z" fill="white"/>
<path d="M33.8846 39.4209C33.7073 39.4209 33.5661 39.569 33.5746 39.746L34.3939 56.9421C34.4696 58.5336 35.7768 59.78 37.3696 59.78H52.4514C54.0441 59.78 55.3513 58.5336 55.4271 56.9421L56.2464 39.746C56.2548 39.569 56.1136 39.4209 55.9364 39.4209H33.8846ZM48.883 41.9037C48.883 41.355 49.3274 40.9106 49.8761 40.9106C50.4248 40.9106 50.8692 41.355 50.8692 41.9037V54.8143C50.8692 55.363 50.4248 55.8075 49.8761 55.8075C49.3274 55.8075 48.883 55.363 48.883 54.8143V41.9037ZM43.9174 41.9037C43.9174 41.355 44.3618 40.9106 44.9105 40.9106C45.4592 40.9106 45.9036 41.355 45.9036 41.9037V54.8143C45.9036 55.363 45.4592 55.8075 44.9105 55.8075C44.3618 55.8075 43.9174 55.363 43.9174 54.8143V41.9037ZM38.9517 41.9037C38.9517 41.355 39.3962 40.9106 39.9449 40.9106C40.4936 40.9106 40.938 41.355 40.938 41.9037V54.8143C40.938 55.363 40.4936 55.8075 39.9449 55.8075C39.3962 55.8075 38.9517 55.363 38.9517 54.8143V41.9037Z" fill="white"/>
</svg>
