<svg width="90" height="90" viewBox="0 0 90 90" fill="none" xmlns="http://www.w3.org/2000/svg">
<circle cx="45" cy="45" r="40" fill="#F3A127" fill-opacity="0.6"/>
<circle cx="45" cy="45" r="44" stroke="#F3A127" stroke-opacity="0.3" stroke-width="2"/>
<circle cx="45" cy="45" r="35" fill="#F3A127"/>
<path d="M60.3403 49.5634L48.779 29.4874C46.8906 26.1709 42.1153 26.1709 40.2337 29.4874L28.6656 49.5634C26.7773 52.8799 29.1276 57 32.9383 57H56.0269C59.8377 57 62.2287 52.8391 60.3403 49.5634ZM44.4996 52.5462C43.4943 52.5462 42.6587 51.7086 42.6587 50.7007C42.6587 49.6928 43.4943 48.8552 44.4996 48.8552C45.5049 48.8552 46.3404 49.6928 46.2997 50.7484C46.3472 51.7086 45.4642 52.5462 44.4996 52.5462ZM46.1774 40.615C46.0959 42.0451 46.0076 43.4684 45.9261 44.8985C45.8853 45.3616 45.8853 45.7838 45.8853 46.2401C45.8446 46.996 45.2536 47.5817 44.4996 47.5817C43.7456 47.5817 43.1614 47.0369 43.1139 46.281C42.9916 44.0541 42.8625 41.8681 42.7403 39.6412C42.6995 39.0555 42.6587 38.463 42.6112 37.8774C42.6112 36.9103 43.1546 36.1136 44.0377 35.8616C44.9207 35.6505 45.797 36.0727 46.1774 36.9103C46.3065 37.2032 46.3472 37.496 46.3472 37.8365C46.3065 38.7695 46.2182 39.6956 46.1774 40.615Z" fill="white"/>
</svg>
